<svg width="20" height="21" viewBox="0 0 20 21" fill="none" xmlns="http://www.w3.org/2000/svg">
<path d="M7.91667 8.41675C7.91667 8.18663 7.73012 8.00008 7.5 8.00008C7.26988 8.00008 7.08333 8.18663 7.08333 8.41675V14.6667C7.08333 14.8969 7.26988 15.0834 7.5 15.0834C7.73012 15.0834 7.91667 14.8969 7.91667 14.6667V8.41675Z" fill="#6A6F85"/>
<path d="M12.9167 10.5001C12.9167 10.27 12.7301 10.0834 12.5 10.0834C12.2699 10.0834 12.0833 10.27 12.0833 10.5001V14.6667C12.0833 14.8969 12.2699 15.0834 12.5 15.0834C12.7301 15.0834 12.9167 14.8969 12.9167 14.6667V10.5001Z" fill="#6A6F85"/>
<path d="M10.4167 13.4167C10.4167 13.1866 10.2301 13.0001 10 13.0001C9.76988 13.0001 9.58333 13.1866 9.58333 13.4167V14.6667C9.58333 14.8969 9.76988 15.0834 10 15.0834C10.2301 15.0834 10.4167 14.8969 10.4167 14.6667V13.4167Z" fill="#6A6F85"/>
<path fill-rule="evenodd" clip-rule="evenodd" d="M13.0689 4.27985C12.7775 4.25604 12.4302 4.25127 12.0123 4.25032C11.8408 3.7647 11.3777 3.41675 10.8333 3.41675H9.16667C8.62232 3.41675 8.15924 3.7647 7.98771 4.25032C7.56979 4.25127 7.22252 4.25604 6.93107 4.27985C6.55791 4.31034 6.23971 4.37411 5.94836 4.52257C5.47795 4.76225 5.0955 5.1447 4.85582 5.61511C4.70737 5.90646 4.64359 6.22466 4.6131 6.59782C4.58333 6.96223 4.58333 7.41391 4.58333 7.98185V13.8516C4.58333 14.4196 4.58333 14.8713 4.6131 15.2357C4.64359 15.6088 4.70737 15.927 4.85582 16.2184C5.0955 16.6888 5.47795 17.0712 5.94836 17.3109C6.23971 17.4594 6.55791 17.5232 6.93107 17.5536C7.29547 17.5834 7.74712 17.5834 8.31502 17.5834H11.6849C12.2528 17.5834 12.7045 17.5834 13.0689 17.5536C13.4421 17.5232 13.7603 17.4594 14.0516 17.3109C14.522 17.0712 14.9045 16.6888 15.1442 16.2184C15.2926 15.927 15.3564 15.6088 15.3869 15.2357C15.4167 14.8713 15.4167 14.4196 15.4167 13.8517V7.98184C15.4167 7.41392 15.4167 6.96222 15.3869 6.59782C15.3564 6.22466 15.2926 5.90646 15.1442 5.61511C14.9045 5.1447 14.522 4.76225 14.0516 4.52257C13.7603 4.37411 13.4421 4.31034 13.0689 4.27985ZM6.99893 5.11041C7.25777 5.08927 7.57389 5.08468 7.98789 5.08369C8.15957 5.56904 8.62251 5.91675 9.16667 5.91675H10.8333C11.3775 5.91675 11.8404 5.56904 12.0121 5.08369C12.4261 5.08468 12.7422 5.08927 13.0011 5.11041C13.3227 5.13669 13.519 5.18645 13.6733 5.26507C13.9869 5.42486 14.2419 5.67983 14.4017 5.99343C14.4803 6.14773 14.5301 6.34405 14.5563 6.66568C14.583 6.99218 14.5833 7.40982 14.5833 8.00008V13.8334C14.5833 14.4237 14.583 14.8413 14.5563 15.1678C14.5301 15.4894 14.4803 15.6858 14.4017 15.8401C14.2419 16.1537 13.9869 16.4086 13.6733 16.5684C13.519 16.647 13.3227 16.6968 13.0011 16.7231C12.6746 16.7498 12.2569 16.7501 11.6667 16.7501H8.33333C7.74307 16.7501 7.32543 16.7498 6.99893 16.7231C6.6773 16.6968 6.48098 16.647 6.32668 16.5684C6.01308 16.4086 5.75811 16.1537 5.59832 15.8401C5.51971 15.6858 5.46995 15.4894 5.44367 15.1678C5.41699 14.8413 5.41667 14.4237 5.41667 13.8334V8.00008C5.41667 7.40982 5.41699 6.99218 5.44367 6.66568C5.46995 6.34405 5.51971 6.14773 5.59832 5.99343C5.75811 5.67983 6.01308 5.42486 6.32668 5.26507C6.48098 5.18645 6.6773 5.13669 6.99893 5.11041Z" fill="#6A6F85"/>
</svg>
