<svg width="20" height="21" viewBox="0 0 20 21" fill="none" xmlns="http://www.w3.org/2000/svg">
<path d="M14.5777 8.46064C14.8321 8.69388 15.2275 8.67669 15.4607 8.42225C15.694 8.1678 15.6768 7.77244 15.4223 7.5392L11.1289 3.60357C11.014 3.49823 10.9028 3.39625 10.8015 3.31707C10.69 3.22989 10.5527 3.13928 10.3777 3.08576C10.1315 3.01047 9.86846 3.01047 9.62227 3.08576C9.44727 3.13928 9.31003 3.22989 9.1985 3.31707C9.0972 3.39626 8.98598 3.49823 8.87109 3.60357L4.57768 7.5392C4.32323 7.77244 4.30604 8.1678 4.53928 8.42225C4.77253 8.67669 5.16788 8.69388 5.42233 8.46064L9.70156 4.53801C9.83599 4.41479 9.91054 4.34706 9.96832 4.3019C9.98219 4.29105 9.99223 4.28386 9.99891 4.27931H10.0011C10.0078 4.28386 10.0178 4.29105 10.0317 4.3019C10.0895 4.34706 10.164 4.41479 10.2984 4.53801L14.5777 8.46064Z" fill="#6A6F85"/>
<path d="M5.42233 12.5392C5.16788 12.306 4.77253 12.3231 4.53928 12.5776C4.30604 12.832 4.32323 13.2274 4.57768 13.4606L8.87109 17.3963C8.98598 17.5016 9.09719 17.6036 9.1985 17.6828C9.31003 17.7699 9.44727 17.8606 9.62227 17.9141C9.86846 17.9894 10.1315 17.9894 10.3777 17.9141C10.5527 17.8606 10.69 17.7699 10.8015 17.6828C10.9028 17.6036 11.014 17.5016 11.1289 17.3963L15.4223 13.4606C15.6768 13.2274 15.694 12.832 15.4607 12.5776C15.2275 12.3231 14.8321 12.306 14.5777 12.5392L10.2984 16.4618C10.164 16.585 10.0895 16.6528 10.0317 16.6979C10.0178 16.7088 10.0078 16.716 10.0011 16.7205H9.99891C9.99223 16.716 9.98219 16.7088 9.96832 16.6979C9.91054 16.6528 9.83599 16.585 9.70156 16.4618L5.42233 12.5392Z" fill="#6A6F85"/>
</svg>
