<svg width="16" height="17" viewBox="0 0 16 17" fill="none" xmlns="http://www.w3.org/2000/svg">
<path d="M3.00864 5.80198C2.80719 5.61312 2.49077 5.62332 2.3019 5.82478C2.11304 6.02624 2.12325 6.34265 2.3247 6.53152L7.08581 10.9951C7.1787 11.0822 7.26844 11.1663 7.35023 11.2316C7.44013 11.3034 7.55117 11.3783 7.69339 11.4225C7.89309 11.4845 8.10692 11.4845 8.30662 11.4225C8.44884 11.3783 8.55988 11.3034 8.64978 11.2316C8.73157 11.1663 8.82131 11.0822 8.91421 10.9951L13.6753 6.53152C13.8768 6.34265 13.887 6.02624 13.6981 5.82478C13.5092 5.62332 13.1928 5.61312 12.9914 5.80198L8.24167 10.2548C8.13308 10.3566 8.07267 10.4128 8.02577 10.4502C8.01446 10.4592 8.00627 10.4652 8.00082 10.469H7.99919C7.99374 10.4652 7.98555 10.4592 7.97424 10.4502C7.92734 10.4128 7.86693 10.3566 7.75835 10.2548L3.00864 5.80198Z" fill="#6A6F85"/>
</svg>
