<svg width="81" height="80" viewBox="0 0 81 80" fill="none" xmlns="http://www.w3.org/2000/svg">
<rect x="0.75" width="80" height="80" rx="40" fill="#EBF0FD"/>
<path fill-rule="evenodd" clip-rule="evenodd" d="M35.3391 22.5C34.2708 22.5 33.3791 22.5 32.6507 22.5595C31.8909 22.6216 31.1776 22.7558 30.5031 23.0995C29.4682 23.6268 28.6268 24.4682 28.0995 25.5031C27.7558 26.1776 27.6216 26.8909 27.5595 27.6507C27.5 28.3791 27.5 29.2708 27.5 30.3391V44.0505C27.5 44.9394 27.5 45.6815 27.5415 46.2907C27.5848 46.9249 27.6781 47.524 27.9187 48.1048C28.4769 49.4524 29.5476 50.5231 30.8952 51.0813C31.476 51.3219 32.0751 51.4152 32.7093 51.4585C32.9796 51.4769 33.2761 51.4872 33.6 51.4929V52.8499C33.5999 53.3671 33.5999 53.8364 33.6319 54.2276C33.6662 54.6477 33.7442 55.0994 33.9706 55.5436C34.2965 56.1833 34.8167 56.7035 35.4564 57.0294C35.9006 57.2557 36.3523 57.3338 36.7724 57.3681C37.1636 57.4001 37.6329 57.4 38.1501 57.4H43.8499C44.3671 57.4 44.8364 57.4001 45.2276 57.3681C45.6477 57.3338 46.0994 57.2557 46.5436 57.0294C47.1833 56.7035 47.7034 56.1833 48.0294 55.5436C48.2557 55.0994 48.3338 54.6477 48.3681 54.2276C48.4 53.8364 48.4 53.3672 48.4 52.85L48.4 51.4929C48.7239 51.4872 49.0204 51.4769 49.2907 51.4585C49.9249 51.4152 50.524 51.3219 51.1048 51.0813C52.4524 50.5231 53.5231 49.4524 54.0813 48.1048C54.3219 47.524 54.4152 46.9249 54.4585 46.2907C54.5 45.6815 54.5 44.9394 54.5 44.0505V30.3391C54.5 29.2708 54.5 28.3791 54.4405 27.6507C54.3784 26.8909 54.2442 26.1776 53.9005 25.5031C53.3732 24.4682 52.5318 23.6268 51.497 23.0995C50.8224 22.7558 50.1091 22.6216 49.3493 22.5595C48.6209 22.5 47.7292 22.5 46.6609 22.5H35.3391ZM36.4 51.5H45.6V52.8C45.6 53.3832 45.5989 53.7363 45.5774 53.9996C45.5618 54.1904 45.5398 54.2589 45.5344 54.2727C45.4769 54.3854 45.3854 54.477 45.2727 54.5344C45.2589 54.5398 45.1904 54.5618 44.9996 54.5774C44.7363 54.5989 44.3831 54.6 43.8 54.6H38.2C37.6168 54.6 37.2637 54.5989 37.0004 54.5774C36.8096 54.5618 36.741 54.5398 36.7272 54.5344C36.6146 54.477 36.523 54.3854 36.4656 54.2727C36.4602 54.259 36.4382 54.1904 36.4226 53.9996C36.4011 53.7363 36.4 53.3832 36.4 52.8V51.5ZM31.865 25.7725C32.0461 25.6802 32.3207 25.5964 32.895 25.5495C33.4867 25.5012 34.2551 25.5 35.4 25.5H46.6C47.7449 25.5 48.5133 25.5012 49.105 25.5495C49.6793 25.5964 49.9539 25.6802 50.135 25.7725C50.6054 26.0122 50.9878 26.3946 51.2275 26.865C51.3198 27.0461 51.4036 27.3207 51.4505 27.895C51.4988 28.4867 51.5 29.2551 51.5 30.4V44C51.5 44.9524 51.4992 45.5916 51.4654 46.0865C51.4326 46.568 51.3736 46.8024 51.3097 46.9567C51.056 47.5693 50.5693 48.056 49.9567 48.3097C49.8024 48.3736 49.568 48.4326 49.0865 48.4654C48.5916 48.4992 47.9524 48.5 47 48.5H35C34.0476 48.5 33.4084 48.4992 32.9135 48.4654C32.432 48.4326 32.1976 48.3736 32.0433 48.3097C31.4307 48.056 30.944 47.5693 30.6903 46.9567C30.6264 46.8024 30.5674 46.568 30.5346 46.0865C30.5008 45.5916 30.5 44.9524 30.5 44V30.4C30.5 29.2551 30.5012 28.4867 30.5495 27.895C30.5964 27.3207 30.6802 27.0461 30.7725 26.865C31.0122 26.3946 31.3946 26.0122 31.865 25.7725Z" fill="#454BBA"/>
</svg>
