<svg width="20" height="21" viewBox="0 0 20 21" fill="none" xmlns="http://www.w3.org/2000/svg">
<path d="M10.4167 8.43734V7.58317H11.3333C12.8983 7.58317 14.1667 6.31484 14.1667 4.74984V4.6665C14.1667 4.4365 13.98 4.24984 13.75 4.24984H12.4167C11.5267 4.24984 10.7417 4.669 10.2225 5.31067C9.8075 4.2065 8.75 3.4165 7.5 3.4165H6.25C6.02 3.4165 5.83333 3.60317 5.83333 3.83317C5.83333 5.444 7.13917 6.74984 8.75 6.74984H9.58333V7.08317V7.1665V8.43734C7.2475 8.64817 5.41667 10.609 5.41667 12.9998C5.41667 15.5315 7.46833 17.5832 10 17.5832C12.5317 17.5832 14.5833 15.5315 14.5833 12.9998C14.5833 10.609 12.7525 8.64817 10.4167 8.43734ZM8.75 5.9165C7.7425 5.9165 6.90167 5.20067 6.70833 4.24984H7.5C8.5075 4.24984 9.34833 4.96567 9.54167 5.9165H8.75ZM13.75 12.9998C13.75 13.464 13.655 13.9032 13.5008 14.3132C13.4183 14.224 13.33 14.1282 13.2392 14.0282C13.0608 13.8315 12.8792 13.6248 12.7308 13.4457C12.5725 13.2532 12.4817 13.1265 12.4558 13.0748C12.44 13.0432 12.4208 12.974 12.4042 12.834C12.3967 12.7732 12.3908 12.7098 12.3842 12.6382C12.3833 12.6323 12.3833 12.6265 12.3825 12.6198C12.375 12.5432 12.3675 12.4582 12.3558 12.3732C12.3167 12.0698 12.2217 11.5623 11.7483 11.3257C11.5042 11.204 11.2642 11.2115 11.0575 11.2682C10.8675 11.3198 10.6875 11.4182 10.5458 11.4973C10.54 11.5007 10.5342 11.504 10.5283 11.5073C10.2175 11.6798 9.99583 11.8032 9.73917 11.8032C9.57667 11.8032 9.46667 11.714 9.43333 11.5265C9.39667 11.3248 9.46333 11.0023 9.77333 10.6915C10.1242 10.3407 10.5883 10.0415 10.98 9.82484C11.1733 9.71817 11.3433 9.63484 11.4642 9.57817C11.4775 9.57234 11.4825 9.56984 11.4942 9.56484C12.8208 10.1415 13.75 11.4607 13.75 12.9998ZM12.4167 5.08317H13.3058C13.1475 6.029 12.3242 6.74984 11.3333 6.74984H10.4442C10.6033 5.804 11.4258 5.08317 12.4167 5.08317ZM6.615 11.4107C6.67083 11.4507 6.72833 11.494 6.78583 11.5423C7.0775 11.7873 7.24 12.0298 7.24 12.2182C7.24 12.2782 7.20083 12.4057 7.05917 12.6007C6.92667 12.7832 6.74083 12.9757 6.5425 13.1557C6.45667 13.234 6.37083 13.3057 6.28833 13.3732C6.275 13.249 6.25 13.1282 6.25 12.9998C6.25 12.4298 6.3875 11.8948 6.615 11.4107ZM6.48833 14.2765C6.4925 14.2732 6.49417 14.2723 6.49833 14.269C6.66167 14.1465 6.88083 13.9732 7.10167 13.7723C7.32083 13.574 7.5525 13.3382 7.7325 13.0907C7.90417 12.8548 8.07333 12.5482 8.07333 12.2182C8.07333 11.6257 7.63333 11.1657 7.3225 10.904C7.23083 10.8265 7.14083 10.7598 7.0575 10.7007C7.74333 9.824 8.8 9.24984 10 9.24984C10.0958 9.24984 10.1867 9.27067 10.2808 9.27817C9.91833 9.49734 9.52333 9.76234 9.185 10.1007C8.71417 10.5715 8.52083 11.1598 8.61417 11.674C8.71 12.2032 9.12167 12.6348 9.74 12.6348C10.2217 12.6348 10.6217 12.4098 10.89 12.259C10.9117 12.2473 10.9317 12.2357 10.9517 12.2248C11.1025 12.1407 11.1992 12.0923 11.2783 12.0715C11.3408 12.0548 11.3608 12.0623 11.3767 12.0707C11.4242 12.0948 11.4892 12.1673 11.53 12.4798C11.5392 12.5482 11.5458 12.6198 11.5533 12.6965C11.5542 12.7032 11.5542 12.7098 11.555 12.7165C11.5617 12.7857 11.5683 12.8607 11.5775 12.9332C11.5958 13.0832 11.6267 13.2773 11.7117 13.4465C11.7867 13.5957 11.9392 13.7932 12.0883 13.9748C12.2483 14.169 12.44 14.3857 12.6225 14.5873C12.8017 14.7848 12.9733 14.969 13.1025 15.1065C12.9817 15.284 12.8425 15.4473 12.6942 15.6015C12.6908 15.5973 12.6875 15.5948 12.6842 15.5907C12.5542 15.4482 12.3958 15.2782 12.2292 15.114C12.0642 14.9523 11.88 14.7865 11.6983 14.659C11.535 14.5448 11.2983 14.4057 11.0425 14.4057C10.7017 14.4057 10.4533 14.5723 10.3292 14.6557C10.3133 14.6665 10.3 14.6757 10.2883 14.6823C10.2467 14.709 10.2258 14.719 10.2167 14.7223C10.2108 14.7207 10.2017 14.7173 10.1875 14.7098C10.165 14.6982 10.125 14.6682 10.0642 14.584C10.0183 14.5207 9.98 14.4548 9.9325 14.374C9.91333 14.3407 9.89167 14.3048 9.8675 14.2648C9.74167 14.0557 9.48083 13.6248 8.95917 13.6248C8.46 13.6248 8.15583 14.0007 8.00083 14.3107C7.83833 14.6357 7.76167 15.0257 7.76167 15.3432C7.76167 15.5548 7.79917 15.8107 7.84167 16.0573C7.2225 15.6207 6.75167 15.0007 6.48833 14.2765ZM8.78583 16.5315C8.765 16.4415 8.74083 16.3357 8.71583 16.2148C8.65083 15.899 8.59417 15.5565 8.59417 15.344C8.59417 15.1407 8.6475 14.8798 8.74583 14.684C8.85167 14.4732 8.9375 14.4582 8.95917 14.4582C8.96 14.4582 8.96 14.4582 8.96083 14.4582C8.96583 14.4582 8.97333 14.4573 8.99833 14.4807C9.03833 14.5173 9.085 14.5807 9.15333 14.6948C9.16667 14.7165 9.18083 14.7415 9.19667 14.7682C9.25 14.859 9.31667 14.9732 9.38667 15.0707C9.48167 15.2023 9.61667 15.3573 9.81417 15.4557C9.99167 15.5448 10.1725 15.5773 10.3533 15.5457C10.52 15.5165 10.6508 15.439 10.7325 15.3873C10.755 15.3732 10.775 15.3607 10.7933 15.3482C10.93 15.2615 10.9658 15.239 11.0417 15.239C11.0358 15.239 11.0358 15.239 11.0425 15.2415C11.0592 15.2473 11.115 15.2682 11.22 15.3415C11.3475 15.4307 11.4933 15.5598 11.645 15.7082C11.7892 15.849 11.9275 15.9982 12.0508 16.1332C11.4608 16.5207 10.7583 16.7498 10 16.7498C9.5725 16.7498 9.16833 16.6632 8.78583 16.5315Z" fill="#6A6F85"/>
</svg>
