<svg width="20" height="21" viewBox="0 0 20 21" fill="none" xmlns="http://www.w3.org/2000/svg">
<path d="M13.6448 4.38985C13.561 4.29557 13.439 4.24433 13.313 4.2505C13.187 4.25667 13.0706 4.31958 12.9964 4.4216L9.84954 8.74856L6.81303 7.60986C6.62639 7.53988 6.41633 7.61187 6.31187 7.78163L2.97853 13.1983C2.85793 13.3943 2.91903 13.6509 3.11502 13.7715C3.311 13.8921 3.56764 13.831 3.68825 13.635L6.84173 8.51063L9.85376 9.64014C10.0291 9.70591 10.2269 9.64656 10.337 9.49507L13.3659 5.33039L16.3553 8.69349C16.5082 8.86548 16.7715 8.88097 16.9435 8.72809C17.1155 8.57521 17.131 8.31184 16.9781 8.13985L13.6448 4.38985Z" fill="#6A6F85"/>
<path d="M3.33333 15.9167C3.10321 15.9167 2.91667 16.1032 2.91667 16.3333C2.91667 16.5635 3.10321 16.75 3.33333 16.75H16.6667C16.8968 16.75 17.0833 16.5635 17.0833 16.3333C17.0833 16.1032 16.8968 15.9167 16.6667 15.9167H3.33333Z" fill="#6A6F85"/>
</svg>
