<svg width="20" height="21" viewBox="0 0 20 21" fill="none" xmlns="http://www.w3.org/2000/svg">
<path d="M5.41667 8C5.41667 7.77 5.60333 7.58333 5.83333 7.58333H10.8333C11.0633 7.58333 11.25 7.77 11.25 8C11.25 8.23 11.0633 8.41667 10.8333 8.41667H5.83333C5.60333 8.41667 5.41667 8.23 5.41667 8Z" fill="#6A6F85"/>
<path d="M5.41667 10.0833C5.41667 9.85333 5.60333 9.66667 5.83333 9.66667H10.8333C11.0633 9.66667 11.25 9.85333 11.25 10.0833C11.25 10.3133 11.0633 10.5 10.8333 10.5H5.83333C5.60333 10.5 5.41667 10.3133 5.41667 10.0833Z" fill="#6A6F85"/>
<path d="M5.83333 11.75C5.60333 11.75 5.41667 11.9367 5.41667 12.1667C5.41667 12.3967 5.60333 12.5833 5.83333 12.5833H7.5C7.73 12.5833 7.91667 12.3967 7.91667 12.1667C7.91667 11.9367 7.73 11.75 7.5 11.75H5.83333Z" fill="#6A6F85"/>
<path fill-rule="evenodd" clip-rule="evenodd" d="M13.75 7.98165V10.9166C15.5908 10.9166 17.0833 12.4091 17.0833 14.25C17.0833 16.0908 15.5908 17.5833 13.75 17.5833C13.2717 17.5833 12.8183 17.4783 12.4067 17.2966C12.4021 17.2989 12.3983 17.3017 12.3945 17.3044C12.3914 17.3067 12.3884 17.3089 12.385 17.3108C12.0942 17.4591 11.7758 17.5225 11.4025 17.5533C11.0383 17.5833 10.5867 17.5833 10.0183 17.5833H6.64833C6.08083 17.5833 5.62917 17.5833 5.26417 17.5533C4.89167 17.5233 4.57333 17.4591 4.28167 17.3108C3.81167 17.0708 3.42917 16.6891 3.18917 16.2183C3.04083 15.9275 2.9775 15.6091 2.94667 15.2358C2.91667 14.8716 2.91667 14.4191 2.91667 13.8516V7.98165C2.91667 7.41415 2.91667 6.96248 2.94667 6.59748C2.97667 6.22498 3.04083 5.90665 3.18917 5.61498C3.42917 5.14498 3.81167 4.76248 4.28167 4.52248C4.57333 4.37415 4.89167 4.30998 5.26417 4.27998C5.55583 4.25581 5.90333 4.25081 6.32083 4.25081C6.4925 3.76581 6.95583 3.41748 7.5 3.41748H9.16667C9.71167 3.41748 10.1742 3.76498 10.3458 4.25081C10.7642 4.25165 11.1108 4.25581 11.4025 4.27998C11.775 4.30998 12.0933 4.37415 12.385 4.52248C12.8558 4.76248 13.2375 5.14498 13.4775 5.61498C13.6258 5.90581 13.6892 6.22415 13.72 6.59748C13.75 6.96165 13.75 7.41415 13.75 7.98165ZM16.2083 13.8333C16.0317 12.7875 15.2117 11.9683 14.1667 11.7916V13.8333H16.2083ZM10 16.75C10.59 16.75 11.0075 16.75 11.3342 16.7233C11.3784 16.7195 11.4121 16.7137 11.4462 16.7078C11.4648 16.7045 11.4836 16.7013 11.5042 16.6983C10.84 16.0891 10.4167 15.2225 10.4167 14.25C10.4167 12.6983 11.4817 11.4058 12.9167 11.0341V7.99998C12.9167 7.40998 12.9167 6.99248 12.89 6.66581C12.8633 6.34415 12.8133 6.14748 12.735 5.99331C12.575 5.67998 12.32 5.42498 12.0067 5.26498C11.8517 5.18581 11.6558 5.13581 11.3342 5.10998C11.075 5.08915 10.7592 5.08415 10.345 5.08331C10.1733 5.56915 9.71083 5.91665 9.16667 5.91665H7.5C6.95583 5.91665 6.4925 5.56831 6.32083 5.08331C5.9075 5.08498 5.59083 5.08915 5.3325 5.10998C5.01083 5.13665 4.81417 5.18665 4.66 5.26498C4.34667 5.42498 4.09167 5.67998 3.93167 5.99331C3.8525 6.14748 3.8025 6.34415 3.77667 6.66581C3.75 6.99248 3.75 7.40998 3.75 7.99998V13.8333C3.75 14.4233 3.75 14.8408 3.77667 15.1675C3.80333 15.4891 3.85333 15.6858 3.93167 15.84C4.09167 16.1533 4.34667 16.4083 4.66 16.5683C4.81417 16.6475 5.01083 16.6975 5.3325 16.7233C5.65917 16.75 6.07667 16.75 6.66667 16.75H10ZM11.25 14.25C11.25 15.6308 12.3692 16.75 13.75 16.75C14.9883 16.75 16.0083 15.8483 16.2083 14.6666H14.1667C13.7067 14.6666 13.3333 14.2933 13.3333 13.8333V11.7916C12.1517 11.9916 11.25 13.0116 11.25 14.25Z" fill="#6A6F85"/>
</svg>
