<svg width="18" height="18" viewBox="0 0 18 18" fill="none" xmlns="http://www.w3.org/2000/svg">
<path d="M13 0.25C12.5858 0.25 12.25 0.585787 12.25 1C12.25 1.41421 12.5858 1.75 13 1.75L15.1893 1.75L7.96967 8.96967C7.67678 9.26256 7.67678 9.73744 7.96967 10.0303C8.26256 10.3232 8.73744 10.3232 9.03033 10.0303L16.25 2.81066V5C16.25 5.41421 16.5858 5.75 17 5.75C17.4142 5.75 17.75 5.41421 17.75 5V1C17.75 0.801087 17.671 0.610322 17.5303 0.46967C17.3897 0.329017 17.1989 0.25 17 0.25H13Z" fill="#B4B7C1"/>
<path d="M6.56739 1.75C5.61494 1.74999 4.8544 1.74999 4.24013 1.80018C3.61012 1.85165 3.06824 1.95963 2.57054 2.21322C1.77085 2.62068 1.12068 3.27085 0.713223 4.07054C0.459634 4.56824 0.35165 5.11012 0.300176 5.74013C0.249989 6.3544 0.249994 7.11494 0.25 8.06739V11.4326C0.249994 12.3851 0.249989 13.1456 0.300176 13.7599C0.35165 14.3899 0.459634 14.9318 0.713223 15.4295C1.12068 16.2292 1.77085 16.8793 2.57054 17.2868C3.06824 17.5404 3.61012 17.6484 4.24013 17.6998C4.85438 17.75 5.6149 17.75 6.5673 17.75H9.93263C10.885 17.75 11.6456 17.75 12.2599 17.6998C12.8899 17.6484 13.4318 17.5404 13.9295 17.2868C14.7291 16.8793 15.3793 16.2292 15.7868 15.4295C16.0404 14.9318 16.1484 14.3899 16.1998 13.7599C16.25 13.1456 16.25 12.3851 16.25 11.4326V9C16.25 8.58578 15.9142 8.25 15.5 8.25C15.0858 8.25 14.75 8.58578 14.75 9V11.4C14.75 12.3925 14.7494 13.0917 14.7048 13.6377C14.6609 14.175 14.5782 14.4975 14.4503 14.7485C14.1866 15.2659 13.7659 15.6866 13.2485 15.9503C12.9975 16.0782 12.675 16.1609 12.1377 16.2048C11.5917 16.2494 10.8925 16.25 9.9 16.25H6.6C5.60753 16.25 4.90829 16.2494 4.36228 16.2048C3.82503 16.1609 3.50252 16.0782 3.25153 15.9503C2.73408 15.6866 2.31338 15.2659 2.04973 14.7485C1.92184 14.4975 1.83909 14.175 1.79519 13.6377C1.75058 13.0917 1.75 12.3925 1.75 11.4V8.1C1.75 7.10753 1.75058 6.40829 1.79519 5.86228C1.83909 5.32503 1.92184 5.00252 2.04973 4.75153C2.31338 4.23408 2.73408 3.81338 3.25153 3.54973C3.50252 3.42184 3.82503 3.33909 4.36228 3.29519C4.90829 3.25058 5.60753 3.25 6.6 3.25H9C9.41421 3.25 9.75 2.91421 9.75 2.5C9.75 2.08579 9.41421 1.75 9 1.75L6.56739 1.75Z" fill="#B4B7C1"/>
</svg>
