<svg width="20" height="21" viewBox="0 0 20 21" fill="none" xmlns="http://www.w3.org/2000/svg">
<path d="M7.91667 8.40831C7.91667 8.17819 7.73012 7.99164 7.5 7.99164C7.26988 7.99164 7.08333 8.17819 7.08333 8.40831V8.41664C7.08333 8.64676 7.26988 8.83331 7.5 8.83331C7.73012 8.83331 7.91667 8.64676 7.91667 8.41664V8.40831Z" fill="#6A6F85"/>
<path d="M7.91667 10.4916C7.91667 10.2615 7.73012 10.075 7.5 10.075C7.26988 10.075 7.08333 10.2615 7.08333 10.4916V10.5C7.08333 10.7301 7.26988 10.9166 7.5 10.9166C7.73012 10.9166 7.91667 10.7301 7.91667 10.5V10.4916Z" fill="#6A6F85"/>
<path d="M7.91667 12.575C7.91667 12.3449 7.73012 12.1583 7.5 12.1583C7.26988 12.1583 7.08333 12.3449 7.08333 12.575V12.5833C7.08333 12.8134 7.26988 13 7.5 13C7.73012 13 7.91667 12.8134 7.91667 12.5833V12.575Z" fill="#6A6F85"/>
<path d="M7.91667 14.6583C7.91667 14.4282 7.73012 14.2416 7.5 14.2416C7.26988 14.2416 7.08333 14.4282 7.08333 14.6583V14.6666C7.08333 14.8968 7.26988 15.0833 7.5 15.0833C7.73012 15.0833 7.91667 14.8968 7.91667 14.6666V14.6583Z" fill="#6A6F85"/>
<path fill-rule="evenodd" clip-rule="evenodd" d="M9.62732 3.76215C10.1814 3.48511 10.8333 3.88802 10.8333 4.5075V6.90908L15.511 9.24789C15.7086 9.3467 15.8334 9.54869 15.8334 9.76964V16.75H16.6667C16.8968 16.75 17.0833 16.9365 17.0833 17.1666C17.0833 17.3968 16.8968 17.5833 16.6667 17.5833H10.4195L10.4167 17.5833L10.4138 17.5833H4.58618L4.58333 17.5833L4.58048 17.5833H3.33333C3.10321 17.5833 2.91667 17.3968 2.91667 17.1666C2.91667 16.9365 3.10321 16.75 3.33333 16.75H4.16667V7.0075C4.16667 6.69186 4.345 6.40331 4.62732 6.26215L9.62732 3.76215ZM10.8333 16.75V7.84077L15.0001 9.92415V16.75H10.8333ZM10 4.5075L10 16.75H5V7.0075L10 4.5075Z" fill="#6A6F85"/>
</svg>
