<svg width="368" height="145" viewBox="0 0 368 145" fill="none" xmlns="http://www.w3.org/2000/svg">
<g filter="url(#filter0_ii_1_2957)">
<g clip-path="url(#clip0_1_2957)">
<rect width="368" height="145" rx="11" fill="#F2F4FA"/>
<rect x="73" y="24.5" width="223" height="135" rx="10" fill="white"/>
<rect x="92" y="51.5" width="184" height="48" rx="14" stroke="#4B7BEB" stroke-width="3"/>
<rect x="109" y="70.5" width="150" height="10" rx="5" fill="#DBDDE6" stroke="#DBDDE6" stroke-width="2"/>
<rect x="260" y="43.5" width="20" height="20" rx="7" fill="#4B7BEB"/>
<path d="M267.75 51.625C267.543 51.625 267.375 51.793 267.375 52C267.375 52.207 267.543 52.375 267.75 52.375H268C268.207 52.375 268.375 52.207 268.375 52C268.375 51.793 268.207 51.625 268 51.625H267.75Z" fill="white"/>
<path d="M269.5 52C269.5 51.793 269.668 51.625 269.875 51.625H270.125C270.332 51.625 270.5 51.793 270.5 52C270.5 52.207 270.332 52.375 270.125 52.375H269.875C269.668 52.375 269.5 52.207 269.5 52Z" fill="white"/>
<path d="M271.625 52C271.625 51.793 271.793 51.625 272 51.625H272.25C272.457 51.625 272.625 51.793 272.625 52C272.625 52.207 272.457 52.375 272.25 52.375H272C271.793 52.375 271.625 52.207 271.625 52Z" fill="white"/>
<path d="M267.375 54C267.375 53.793 267.543 53.625 267.75 53.625H268C268.207 53.625 268.375 53.793 268.375 54C268.375 54.207 268.207 54.375 268 54.375H267.75C267.543 54.375 267.375 54.207 267.375 54Z" fill="white"/>
<path d="M269.5 54C269.5 53.793 269.668 53.625 269.875 53.625H270.125C270.332 53.625 270.5 53.793 270.5 54C270.5 54.207 270.332 54.375 270.125 54.375H269.875C269.668 54.375 269.5 54.207 269.5 54Z" fill="white"/>
<path d="M271.625 54C271.625 53.793 271.793 53.625 272 53.625H272.25C272.457 53.625 272.625 53.793 272.625 54C272.625 54.207 272.457 54.375 272.25 54.375H272C271.793 54.375 271.625 54.207 271.625 54Z" fill="white"/>
<path fill-rule="evenodd" clip-rule="evenodd" d="M272.25 49.125H272.125V49C272.125 48.793 271.957 48.625 271.75 48.625C271.543 48.625 271.375 48.793 271.375 49V49.125H268.625V49C268.625 48.793 268.457 48.625 268.25 48.625C268.043 48.625 267.875 48.793 267.875 49V49.125H267.75C266.576 49.125 265.625 50.0765 265.625 51.25V55.75C265.625 56.9235 266.576 57.875 267.75 57.875H272.25C273.424 57.875 274.375 56.9235 274.375 55.75V51.25C274.375 50.0765 273.424 49.125 272.25 49.125ZM266.375 51.25C266.375 50.4905 266.99 49.875 267.75 49.875H267.875V50C267.875 50.207 268.043 50.375 268.25 50.375C268.457 50.375 268.625 50.207 268.625 50V49.875H271.375V50C271.375 50.207 271.543 50.375 271.75 50.375C271.957 50.375 272.125 50.207 272.125 50V49.875H272.25C273.01 49.875 273.625 50.4905 273.625 51.25V55.375H268.5C267.326 55.375 266.375 54.4235 266.375 53.25V51.25ZM272.25 57.125H267.75C266.99 57.125 266.375 56.5095 266.375 55.75V55.1815C266.901 55.76 267.657 56.125 268.5 56.125H273.566C273.403 56.701 272.878 57.125 272.25 57.125Z" fill="white"/>
<g filter="url(#filter1_d_1_2957)">
<rect x="143" y="96.5" width="58" height="25" rx="12.5" fill="#454BBA" shape-rendering="crispEdges"/>
<path d="M160.238 103.574H162.226L164.606 107.732L167 103.574H168.89L165.39 109.3V113.5H163.71V109.3L160.238 103.574ZM171.608 112.254C171.86 112.254 172.098 112.207 172.322 112.114C172.555 112.021 172.761 111.885 172.938 111.708C173.115 111.521 173.255 111.293 173.358 111.022C173.461 110.751 173.512 110.439 173.512 110.084C173.512 109.729 173.461 109.421 173.358 109.16C173.255 108.889 173.115 108.665 172.938 108.488C172.761 108.301 172.555 108.166 172.322 108.082C172.098 107.989 171.86 107.942 171.608 107.942C171.356 107.942 171.113 107.989 170.88 108.082C170.656 108.166 170.455 108.301 170.278 108.488C170.11 108.665 169.97 108.889 169.858 109.16C169.755 109.421 169.704 109.729 169.704 110.084C169.704 110.439 169.755 110.751 169.858 111.022C169.97 111.293 170.11 111.521 170.278 111.708C170.455 111.885 170.656 112.021 170.88 112.114C171.113 112.207 171.356 112.254 171.608 112.254ZM171.608 106.472C172.121 106.472 172.593 106.565 173.022 106.752C173.451 106.929 173.825 107.181 174.142 107.508C174.459 107.825 174.707 108.203 174.884 108.642C175.061 109.081 175.15 109.561 175.15 110.084C175.15 110.607 175.061 111.092 174.884 111.54C174.707 111.979 174.459 112.361 174.142 112.688C173.825 113.005 173.451 113.257 173.022 113.444C172.593 113.621 172.121 113.71 171.608 113.71C171.104 113.71 170.633 113.621 170.194 113.444C169.765 113.257 169.391 113.005 169.074 112.688C168.766 112.361 168.523 111.979 168.346 111.54C168.169 111.092 168.08 110.607 168.08 110.084C168.08 109.561 168.169 109.081 168.346 108.642C168.523 108.203 168.766 107.825 169.074 107.508C169.391 107.181 169.765 106.929 170.194 106.752C170.633 106.565 171.104 106.472 171.608 106.472ZM181.169 112.744C181.001 113.052 180.735 113.29 180.371 113.458C180.016 113.617 179.638 113.696 179.237 113.696C178.826 113.696 178.462 113.626 178.145 113.486C177.827 113.346 177.557 113.155 177.333 112.912C177.118 112.66 176.95 112.371 176.829 112.044C176.717 111.717 176.661 111.363 176.661 110.98V106.682H178.285V110.686C178.285 110.901 178.308 111.101 178.355 111.288C178.411 111.475 178.495 111.638 178.607 111.778C178.719 111.918 178.859 112.03 179.027 112.114C179.204 112.198 179.414 112.24 179.657 112.24C180.133 112.24 180.487 112.1 180.721 111.82C180.963 111.531 181.085 111.162 181.085 110.714V106.682H182.709V112.254C182.709 112.534 182.713 112.781 182.723 112.996C182.741 113.201 182.76 113.369 182.779 113.5H181.225C181.206 113.425 181.192 113.318 181.183 113.178C181.173 113.029 181.169 112.884 181.169 112.744Z" fill="white"/>
</g>
<g filter="url(#filter2_d_1_2957)">
<path d="M126.178 85.1382C125.824 83.449 127.633 82.1352 129.13 82.9933L140.289 89.3884C141.807 90.2585 141.554 92.5208 139.882 93.0353L135.388 94.4178C134.939 94.5557 134.554 94.8469 134.298 95.2404L132.397 98.1688C131.425 99.666 129.128 99.2366 128.762 97.4894L126.178 85.1382Z" fill="#454BBA"/>
<path d="M127.157 84.9334C126.98 84.0888 127.884 83.4319 128.633 83.861L139.791 90.256C140.55 90.6911 140.424 91.8222 139.588 92.0795L135.094 93.462L135.388 94.4178L135.094 93.462C134.421 93.6689 133.843 94.1056 133.46 94.6959L131.559 97.6243C131.073 98.3729 129.924 98.1582 129.741 97.2846L127.157 84.9334Z" stroke="white" stroke-width="2"/>
</g>
</g>
</g>
<defs>
<filter id="filter0_ii_1_2957" x="0" y="-8" width="368" height="153" filterUnits="userSpaceOnUse" color-interpolation-filters="sRGB">
<feFlood flood-opacity="0" result="BackgroundImageFix"/>
<feBlend mode="normal" in="SourceGraphic" in2="BackgroundImageFix" result="shape"/>
<feColorMatrix in="SourceAlpha" type="matrix" values="0 0 0 0 0 0 0 0 0 0 0 0 0 0 0 0 0 0 127 0" result="hardAlpha"/>
<feOffset dy="-1"/>
<feGaussianBlur stdDeviation="3.5"/>
<feComposite in2="hardAlpha" operator="arithmetic" k2="-1" k3="1"/>
<feColorMatrix type="matrix" values="0 0 0 0 0.0235294 0 0 0 0 0.0588235 0 0 0 0 0.2 0 0 0 0.02 0"/>
<feBlend mode="normal" in2="shape" result="effect1_innerShadow_1_2957"/>
<feColorMatrix in="SourceAlpha" type="matrix" values="0 0 0 0 0 0 0 0 0 0 0 0 0 0 0 0 0 0 127 0" result="hardAlpha"/>
<feOffset dy="-8"/>
<feGaussianBlur stdDeviation="8"/>
<feComposite in2="hardAlpha" operator="arithmetic" k2="-1" k3="1"/>
<feColorMatrix type="matrix" values="0 0 0 0 0.0235294 0 0 0 0 0.0588235 0 0 0 0 0.2 0 0 0 0.02 0"/>
<feBlend mode="normal" in2="effect1_innerShadow_1_2957" result="effect2_innerShadow_1_2957"/>
</filter>
<filter id="filter1_d_1_2957" x="123" y="85.5" width="98" height="65" filterUnits="userSpaceOnUse" color-interpolation-filters="sRGB">
<feFlood flood-opacity="0" result="BackgroundImageFix"/>
<feColorMatrix in="SourceAlpha" type="matrix" values="0 0 0 0 0 0 0 0 0 0 0 0 0 0 0 0 0 0 127 0" result="hardAlpha"/>
<feOffset dy="9"/>
<feGaussianBlur stdDeviation="10"/>
<feComposite in2="hardAlpha" operator="out"/>
<feColorMatrix type="matrix" values="0 0 0 0 0.270588 0 0 0 0 0.294118 0 0 0 0 0.729412 0 0 0 0.25 0"/>
<feBlend mode="normal" in2="BackgroundImageFix" result="effect1_dropShadow_1_2957"/>
<feBlend mode="normal" in="SourceGraphic" in2="effect1_dropShadow_1_2957" result="shape"/>
</filter>
<filter id="filter2_d_1_2957" x="106.257" y="72.7852" width="54.9131" height="56.1094" filterUnits="userSpaceOnUse" color-interpolation-filters="sRGB">
<feFlood flood-opacity="0" result="BackgroundImageFix"/>
<feColorMatrix in="SourceAlpha" type="matrix" values="0 0 0 0 0 0 0 0 0 0 0 0 0 0 0 0 0 0 127 0" result="hardAlpha"/>
<feOffset dy="9.93794"/>
<feGaussianBlur stdDeviation="9.93794"/>
<feColorMatrix type="matrix" values="0 0 0 0 0.270588 0 0 0 0 0.294118 0 0 0 0 0.729412 0 0 0 0.28 0"/>
<feBlend mode="normal" in2="BackgroundImageFix" result="effect1_dropShadow_1_2957"/>
<feBlend mode="normal" in="SourceGraphic" in2="effect1_dropShadow_1_2957" result="shape"/>
</filter>
<clipPath id="clip0_1_2957">
<rect width="368" height="145" rx="11" fill="white"/>
</clipPath>
</defs>
</svg>
