<svg width="275" height="126" viewBox="0 0 275 126" fill="none" xmlns="http://www.w3.org/2000/svg">
<g filter="url(#filter0_ii_1_3422)">
<g clip-path="url(#clip0_1_3422)">
<rect x="0.5" width="274.5" height="126" rx="11" fill="#F2F4FA"/>
<rect x="16" y="8" width="198.579" height="110" rx="13" fill="white"/>
<rect x="36" y="26.6052" width="27.7895" height="27.7895" rx="13.8947" fill="#4B7BEB"/>
<path d="M48.0198 38.4083C48.0198 38.0631 47.7399 37.7833 47.3948 37.7833C47.0496 37.7833 46.7698 38.0631 46.7698 38.4083V38.4167C46.7698 38.7618 47.0496 39.0417 47.3948 39.0417C47.7399 39.0417 48.0198 38.7618 48.0198 38.4167V38.4083Z" fill="white"/>
<path d="M48.0198 40.4917C48.0198 40.1465 47.7399 39.8667 47.3948 39.8667C47.0496 39.8667 46.7698 40.1465 46.7698 40.4917V40.5C46.7698 40.8452 47.0496 41.125 47.3948 41.125C47.7399 41.125 48.0198 40.8452 48.0198 40.5V40.4917Z" fill="white"/>
<path d="M48.0198 42.575C48.0198 42.2298 47.7399 41.95 47.3948 41.95C47.0496 41.95 46.7698 42.2298 46.7698 42.575V42.5833C46.7698 42.9285 47.0496 43.2083 47.3948 43.2083C47.7399 43.2083 48.0198 42.9285 48.0198 42.5833V42.575Z" fill="white"/>
<path d="M48.0198 44.6583C48.0198 44.3132 47.7399 44.0333 47.3948 44.0333C47.0496 44.0333 46.7698 44.3132 46.7698 44.6583V44.6667C46.7698 45.0118 47.0496 45.2917 47.3948 45.2917C47.7399 45.2917 48.0198 45.0118 48.0198 44.6667V44.6583Z" fill="white"/>
<path fill-rule="evenodd" clip-rule="evenodd" d="M50.9364 34.5075V36.7805L55.4987 39.0616C55.7669 39.1957 55.9364 39.4698 55.9364 39.7697V46.5417H56.5614C56.9066 46.5417 57.1864 46.8215 57.1864 47.1667C57.1864 47.5118 56.9066 47.7917 56.5614 47.7917H55.318L55.3114 47.7917L55.3047 47.7917H43.2281C42.8829 47.7917 42.6031 47.5118 42.6031 47.1667C42.6031 46.8215 42.8829 46.5417 43.2281 46.5417H43.8531V37.0075C43.8531 36.6129 44.076 36.2522 44.4289 36.0758L49.4289 33.5758C50.1215 33.2295 50.9364 33.7331 50.9364 34.5075ZM49.6864 34.8446V37.1503C49.6861 37.1609 49.6862 37.1715 49.6864 37.1821V46.5417H45.1031V37.1362L49.6864 34.8446ZM50.9364 46.5417V38.178L54.6864 40.053V46.5417H50.9364Z" fill="white"/>
<rect x="132.105" y="27.1842" width="65.4211" height="26.6316" rx="6.94737" fill="#E0E3EB"/>
<rect x="150.632" y="35.8684" width="28.3684" height="9.26316" rx="4.63158" fill="#6A6F85"/>
<rect x="35.9995" y="68.9999" width="70.2824" height="9.26316" rx="4.63158" fill="#4B7BEB"/>
<rect x="35.9995" y="82.8948" width="161.526" height="6.94737" rx="3.47368" fill="#E0E3EB"/>
<rect x="35.9995" y="94.4736" width="137.174" height="6.94737" rx="3.47368" fill="#E0E3EB"/>
<rect x="225.5" y="8" width="198.579" height="110" rx="13" fill="white"/>
<rect x="245.5" y="26.6052" width="27.7895" height="27.7895" rx="13.8947" fill="#4B7BEB"/>
<path d="M266.686 37.9999V37.1666C266.686 37.1274 266.681 37.0933 266.674 37.0566C266.667 37.0199 266.66 36.9833 266.646 36.9474L265.437 33.7224C265.321 33.4133 265.026 33.2091 264.696 33.2091H254.094C253.764 33.2091 253.469 33.4141 253.352 33.7224L252.143 36.9474C252.129 36.9833 252.122 37.0208 252.116 37.0583C252.109 37.0949 252.103 37.1283 252.103 37.1666V37.9999C252.103 39.1266 252.791 40.0908 253.77 40.4991V46.5416H252.728C252.383 46.5416 252.103 46.8216 252.103 47.1666C252.103 47.5116 252.383 47.7916 252.728 47.7916H266.061C266.406 47.7916 266.686 47.5116 266.686 47.1666C266.686 46.8216 266.406 46.5416 266.061 46.5416H265.02V40.4991C265.998 40.0908 266.686 39.1266 266.686 37.9999ZM263.978 39.4583C263.173 39.4583 262.52 38.8049 262.52 37.9999V37.7916H265.436V37.9999C265.436 38.8049 264.783 39.4583 263.978 39.4583ZM257.936 37.7916H260.853V37.9999C260.853 38.8049 260.2 39.4583 259.395 39.4583C258.59 39.4583 257.936 38.8049 257.936 37.9999V37.7916ZM254.411 34.4583H264.378L265.16 36.5416H253.63L254.411 34.4583ZM253.353 37.7916H256.27V37.9999C256.27 38.8049 255.616 39.4583 254.811 39.4583C254.006 39.4583 253.353 38.8049 253.353 37.9999V37.7916ZM261.27 46.5416H257.52V44.6666C257.52 43.6308 258.359 42.7916 259.395 42.7916C260.431 42.7916 261.27 43.6308 261.27 44.6666V46.5416ZM262.52 46.5416V44.6666C262.52 42.9408 261.121 41.5416 259.395 41.5416C257.669 41.5416 256.27 42.9408 256.27 44.6666V46.5416H255.02V40.6874C255.9 40.6191 256.66 40.1391 257.103 39.4299C257.581 40.1949 258.426 40.7083 259.395 40.7083C260.364 40.7083 261.208 40.1949 261.686 39.4299C262.13 40.1391 262.89 40.6191 263.77 40.6874V46.5416H262.52Z" fill="white"/>
<rect width="161.526" height="9.26316" transform="translate(245.5 69)" fill="#4B7BEB"/>
<rect x="245.5" y="68.9999" width="70.2824" height="9.26316" rx="4.63158" fill="#6A6F85"/>
<rect x="245.5" y="82.8948" width="161.526" height="6.94737" rx="3.47368" fill="#E0E3EB"/>
<rect x="245.5" y="94.4736" width="137.174" height="6.94737" rx="3.47368" fill="#E0E3EB"/>
<g filter="url(#filter1_d_1_3422)">
<rect x="189.5" y="86" width="58" height="25" rx="12.5" fill="#454BBA" shape-rendering="crispEdges"/>
<path d="M206.738 93.074H208.726L211.106 97.232L213.5 93.074H215.39L211.89 98.8V103H210.21V98.8L206.738 93.074ZM218.108 101.754C218.36 101.754 218.598 101.707 218.822 101.614C219.055 101.521 219.261 101.385 219.438 101.208C219.615 101.021 219.755 100.793 219.858 100.522C219.961 100.251 220.012 99.9387 220.012 99.584C220.012 99.2293 219.961 98.9213 219.858 98.66C219.755 98.3893 219.615 98.1653 219.438 97.988C219.261 97.8013 219.055 97.666 218.822 97.582C218.598 97.4887 218.36 97.442 218.108 97.442C217.856 97.442 217.613 97.4887 217.38 97.582C217.156 97.666 216.955 97.8013 216.778 97.988C216.61 98.1653 216.47 98.3893 216.358 98.66C216.255 98.9213 216.204 99.2293 216.204 99.584C216.204 99.9387 216.255 100.251 216.358 100.522C216.47 100.793 216.61 101.021 216.778 101.208C216.955 101.385 217.156 101.521 217.38 101.614C217.613 101.707 217.856 101.754 218.108 101.754ZM218.108 95.972C218.621 95.972 219.093 96.0653 219.522 96.252C219.951 96.4293 220.325 96.6813 220.642 97.008C220.959 97.3253 221.207 97.7033 221.384 98.142C221.561 98.5807 221.65 99.0613 221.65 99.584C221.65 100.107 221.561 100.592 221.384 101.04C221.207 101.479 220.959 101.861 220.642 102.188C220.325 102.505 219.951 102.757 219.522 102.944C219.093 103.121 218.621 103.21 218.108 103.21C217.604 103.21 217.133 103.121 216.694 102.944C216.265 102.757 215.891 102.505 215.574 102.188C215.266 101.861 215.023 101.479 214.846 101.04C214.669 100.592 214.58 100.107 214.58 99.584C214.58 99.0613 214.669 98.5807 214.846 98.142C215.023 97.7033 215.266 97.3253 215.574 97.008C215.891 96.6813 216.265 96.4293 216.694 96.252C217.133 96.0653 217.604 95.972 218.108 95.972ZM227.669 102.244C227.501 102.552 227.235 102.79 226.871 102.958C226.516 103.117 226.138 103.196 225.737 103.196C225.326 103.196 224.962 103.126 224.645 102.986C224.327 102.846 224.057 102.655 223.833 102.412C223.618 102.16 223.45 101.871 223.329 101.544C223.217 101.217 223.161 100.863 223.161 100.48V96.182H224.785V100.186C224.785 100.401 224.808 100.601 224.855 100.788C224.911 100.975 224.995 101.138 225.107 101.278C225.219 101.418 225.359 101.53 225.527 101.614C225.704 101.698 225.914 101.74 226.157 101.74C226.633 101.74 226.987 101.6 227.221 101.32C227.463 101.031 227.585 100.662 227.585 100.214V96.182H229.209V101.754C229.209 102.034 229.213 102.281 229.223 102.496C229.241 102.701 229.26 102.869 229.279 103H227.725C227.706 102.925 227.692 102.818 227.683 102.678C227.673 102.529 227.669 102.384 227.669 102.244Z" fill="white"/>
</g>
<g filter="url(#filter2_d_1_3422)">
<path d="M172.678 74.6382C172.324 72.949 174.133 71.6352 175.63 72.4933L186.789 78.8884C188.307 79.7585 188.054 82.0208 186.382 82.5353L181.888 83.9178C181.439 84.0557 181.054 84.3469 180.798 84.7404L178.897 87.6688C177.925 89.166 175.628 88.7366 175.262 86.9894L172.678 74.6382Z" fill="#454BBA"/>
<path d="M173.657 74.4334C173.48 73.5888 174.384 72.9319 175.133 73.361L186.291 79.756C187.05 80.1911 186.924 81.3222 186.088 81.5795L181.594 82.962L181.888 83.9178L181.594 82.962C180.921 83.1689 180.343 83.6056 179.96 84.1959L178.059 87.1243C177.573 87.8729 176.424 87.6582 176.241 86.7846L173.657 74.4334Z" stroke="white" stroke-width="2"/>
</g>
</g>
</g>
<defs>
<filter id="filter0_ii_1_3422" x="0.5" y="-8" width="274.5" height="134" filterUnits="userSpaceOnUse" color-interpolation-filters="sRGB">
<feFlood flood-opacity="0" result="BackgroundImageFix"/>
<feBlend mode="normal" in="SourceGraphic" in2="BackgroundImageFix" result="shape"/>
<feColorMatrix in="SourceAlpha" type="matrix" values="0 0 0 0 0 0 0 0 0 0 0 0 0 0 0 0 0 0 127 0" result="hardAlpha"/>
<feOffset dy="-1"/>
<feGaussianBlur stdDeviation="3.5"/>
<feComposite in2="hardAlpha" operator="arithmetic" k2="-1" k3="1"/>
<feColorMatrix type="matrix" values="0 0 0 0 0.0235294 0 0 0 0 0.0588235 0 0 0 0 0.2 0 0 0 0.02 0"/>
<feBlend mode="normal" in2="shape" result="effect1_innerShadow_1_3422"/>
<feColorMatrix in="SourceAlpha" type="matrix" values="0 0 0 0 0 0 0 0 0 0 0 0 0 0 0 0 0 0 127 0" result="hardAlpha"/>
<feOffset dy="-8"/>
<feGaussianBlur stdDeviation="8"/>
<feComposite in2="hardAlpha" operator="arithmetic" k2="-1" k3="1"/>
<feColorMatrix type="matrix" values="0 0 0 0 0.0235294 0 0 0 0 0.0588235 0 0 0 0 0.2 0 0 0 0.02 0"/>
<feBlend mode="normal" in2="effect1_innerShadow_1_3422" result="effect2_innerShadow_1_3422"/>
</filter>
<filter id="filter1_d_1_3422" x="169.5" y="75" width="98" height="65" filterUnits="userSpaceOnUse" color-interpolation-filters="sRGB">
<feFlood flood-opacity="0" result="BackgroundImageFix"/>
<feColorMatrix in="SourceAlpha" type="matrix" values="0 0 0 0 0 0 0 0 0 0 0 0 0 0 0 0 0 0 127 0" result="hardAlpha"/>
<feOffset dy="9"/>
<feGaussianBlur stdDeviation="10"/>
<feComposite in2="hardAlpha" operator="out"/>
<feColorMatrix type="matrix" values="0 0 0 0 0.270588 0 0 0 0 0.294118 0 0 0 0 0.729412 0 0 0 0.25 0"/>
<feBlend mode="normal" in2="BackgroundImageFix" result="effect1_dropShadow_1_3422"/>
<feBlend mode="normal" in="SourceGraphic" in2="effect1_dropShadow_1_3422" result="shape"/>
</filter>
<filter id="filter2_d_1_3422" x="152.757" y="62.2852" width="54.9131" height="56.1096" filterUnits="userSpaceOnUse" color-interpolation-filters="sRGB">
<feFlood flood-opacity="0" result="BackgroundImageFix"/>
<feColorMatrix in="SourceAlpha" type="matrix" values="0 0 0 0 0 0 0 0 0 0 0 0 0 0 0 0 0 0 127 0" result="hardAlpha"/>
<feOffset dy="9.93794"/>
<feGaussianBlur stdDeviation="9.93794"/>
<feColorMatrix type="matrix" values="0 0 0 0 0.270588 0 0 0 0 0.294118 0 0 0 0 0.729412 0 0 0 0.28 0"/>
<feBlend mode="normal" in2="BackgroundImageFix" result="effect1_dropShadow_1_3422"/>
<feBlend mode="normal" in="SourceGraphic" in2="effect1_dropShadow_1_3422" result="shape"/>
</filter>
<clipPath id="clip0_1_3422">
<rect x="0.5" width="274.5" height="126" rx="11" fill="white"/>
</clipPath>
</defs>
</svg>
