<svg width="20" height="21" viewBox="0 0 20 21" fill="none" xmlns="http://www.w3.org/2000/svg">
<path d="M5.97464 3.20825C5.52952 3.20824 5.15797 3.20824 4.85444 3.23304C4.53787 3.2589 4.24066 3.31483 3.9596 3.45803C3.5284 3.67774 3.17782 4.02832 2.95811 4.45952C2.81491 4.74058 2.75898 5.03779 2.73312 5.35436C2.70832 5.65789 2.70832 6.02942 2.70833 6.47454V6.60862C2.70832 7.05374 2.70832 7.42529 2.73312 7.72881C2.75898 8.04538 2.81491 8.3426 2.95811 8.62365C3.17782 9.05485 3.5284 9.40543 3.9596 9.62514C4.24066 9.76835 4.53787 9.82427 4.85444 9.85014C5.15796 9.87494 5.52948 9.87493 5.97459 9.87492H6.10871C6.55382 9.87493 6.92538 9.87494 7.22889 9.85014C7.54546 9.82427 7.84268 9.76835 8.12373 9.62514C8.55493 9.40543 8.90551 9.05485 9.12522 8.62365C9.26843 8.3426 9.32435 8.04538 9.35022 7.72881C9.37502 7.4253 9.37501 7.05377 9.375 6.60866V6.47454C9.37501 6.02944 9.37502 5.65788 9.35022 5.35436C9.32435 5.03779 9.26843 4.74058 9.12522 4.45952C8.90551 4.02832 8.55493 3.67774 8.12373 3.45803C7.84268 3.31483 7.54546 3.2589 7.22889 3.23304C6.92537 3.20824 6.55383 3.20824 6.10871 3.20825H5.97464Z" fill="#060F33"/>
<path d="M5.97464 11.1249H6.1087C6.55382 11.1249 6.92536 11.1249 7.22889 11.1497C7.54546 11.1756 7.84268 11.2315 8.12373 11.3747C8.55493 11.5944 8.90551 11.945 9.12522 12.3762C9.26843 12.6572 9.32435 12.9545 9.35022 13.271C9.37502 13.5745 9.37501 13.9461 9.375 14.3912V14.5253C9.37501 14.9704 9.37502 15.342 9.35022 15.6455C9.32435 15.962 9.26843 16.2593 9.12522 16.5403C8.90551 16.9715 8.55493 17.3221 8.12373 17.5418C7.84268 17.685 7.54546 17.7409 7.22889 17.7668C6.92537 17.7916 6.55383 17.7916 6.10871 17.7916H5.97462C5.5295 17.7916 5.15797 17.7916 4.85444 17.7668C4.53787 17.7409 4.24066 17.685 3.9596 17.5418C3.5284 17.3221 3.17782 16.9715 2.95811 16.5403C2.81491 16.2593 2.75898 15.962 2.73312 15.6455C2.70832 15.342 2.70832 14.9704 2.70833 14.5253V14.3912C2.70832 13.9461 2.70832 13.5746 2.73312 13.271C2.75898 12.9545 2.81491 12.6572 2.95811 12.3762C3.17782 11.945 3.5284 11.5944 3.9596 11.3747C4.24066 11.2315 4.53787 11.1756 4.85444 11.1497C5.15797 11.1249 5.52951 11.1249 5.97464 11.1249Z" fill="#060F33"/>
<path d="M13.8913 11.1249H14.0254C14.4705 11.1249 14.842 11.1249 15.1456 11.1497C15.4621 11.1756 15.7593 11.2315 16.0404 11.3747C16.4716 11.5944 16.8222 11.945 17.0419 12.3762C17.1851 12.6572 17.241 12.9545 17.2669 13.271C17.2917 13.5746 17.2917 13.9461 17.2917 14.3912V14.5253C17.2917 14.9704 17.2917 15.342 17.2669 15.6455C17.241 15.962 17.1851 16.2593 17.0419 16.5403C16.8222 16.9715 16.4716 17.3221 16.0404 17.5418C15.7593 17.685 15.4621 17.7409 15.1456 17.7668C14.842 17.7916 14.4705 17.7916 14.0254 17.7916H13.8913C13.4462 17.7916 13.0746 17.7916 12.7711 17.7668C12.4545 17.7409 12.1573 17.685 11.8763 17.5418C11.4451 17.3221 11.0945 16.9715 10.8748 16.5403C10.7316 16.2593 10.6756 15.962 10.6498 15.6455C10.625 15.342 10.625 14.9704 10.625 14.5253V14.3912C10.625 13.9461 10.625 13.5746 10.6498 13.271C10.6756 12.9545 10.7316 12.6572 10.8748 12.3762C11.0945 11.945 11.4451 11.5944 11.8763 11.3747C12.1573 11.2315 12.4545 11.1756 12.7711 11.1497C13.0746 11.1249 13.4462 11.1249 13.8913 11.1249Z" fill="#060F33"/>
<path d="M13.8913 3.20825H14.0254C14.4705 3.20824 14.842 3.20824 15.1456 3.23304C15.4621 3.2589 15.7593 3.31483 16.0404 3.45803C16.4716 3.67774 16.8222 4.02832 17.0419 4.45952C17.1851 4.74058 17.241 5.03779 17.2669 5.35436C17.2917 5.65789 17.2917 6.02942 17.2917 6.47454V6.60863C17.2917 7.05375 17.2917 7.42529 17.2669 7.72881C17.241 8.04538 17.1851 8.3426 17.0419 8.62365C16.8222 9.05485 16.4716 9.40543 16.0404 9.62514C15.7593 9.76835 15.4621 9.82427 15.1456 9.85014C14.842 9.87494 14.4705 9.87493 14.0254 9.87492H13.8913C13.4462 9.87493 13.0746 9.87494 12.7711 9.85014C12.4545 9.82427 12.1573 9.76835 11.8763 9.62514C11.4451 9.40543 11.0945 9.05485 10.8748 8.62365C10.7316 8.3426 10.6756 8.04538 10.6498 7.72881C10.625 7.42528 10.625 7.05374 10.625 6.60862V6.47456C10.625 6.02943 10.625 5.65789 10.6498 5.35436C10.6756 5.03779 10.7316 4.74058 10.8748 4.45952C11.0945 4.02832 11.4451 3.67774 11.8763 3.45803C12.1573 3.31483 12.4545 3.2589 12.7711 3.23304C13.0746 3.20824 13.4462 3.20824 13.8913 3.20825Z" fill="#060F33"/>
</svg>
