<svg width="20" height="21" viewBox="0 0 20 21" fill="none" xmlns="http://www.w3.org/2000/svg">
<rect width="20" height="20" transform="translate(0 0.5)" fill="white"/>
<path d="M15.9977 3.64692C15.8948 3.4411 15.6445 3.35767 15.4387 3.46058C15.2329 3.5635 15.1495 3.81378 15.2524 4.0196L15.3459 4.20662C15.7474 5.00958 15.7267 5.95893 15.2908 6.74369C14.5499 8.07723 13.2204 8.98033 11.7077 9.17764L9.52949 9.46176C9.3013 9.49153 9.14045 9.70063 9.17021 9.92882C9.19998 10.157 9.40909 10.3179 9.63727 10.2881L11.8155 10.004C13.5903 9.77249 15.15 8.71294 16.0192 7.14839C16.5888 6.12318 16.6157 4.88293 16.0912 3.83394L15.9977 3.64692Z" fill="#6A6F85"/>
<path d="M13.6563 4.05227C13.8805 4.00052 14.1043 4.14035 14.156 4.36457L14.2683 4.85113C14.5987 6.28308 13.6287 7.6898 12.1729 7.88998L11.0984 8.03771C11.092 8.0386 11.0855 8.03933 11.079 8.03992L9.33724 8.19668C8.31815 8.2884 7.62157 9.26821 7.86973 10.2609L7.90423 10.3989C7.96004 10.6221 7.82431 10.8483 7.60106 10.9042C7.37782 10.96 7.15159 10.8242 7.09578 10.601L7.06128 10.463C6.68903 8.97399 7.73391 7.50428 9.26254 7.3667L10.9946 7.21082L12.0593 7.06441C13.0299 6.93096 13.6766 5.99314 13.4563 5.03852L13.344 4.55195C13.2923 4.32773 13.4321 4.10401 13.6563 4.05227Z" fill="#6A6F85"/>
<path d="M12.0613 5.45594C12.2672 5.35303 12.3506 5.10275 12.2477 4.89692C12.1448 4.6911 11.8945 4.60767 11.6887 4.71058L11.5591 4.77534C11.1541 4.97784 10.7076 5.08326 10.2548 5.08326H9.46523C8.80211 5.08326 8.14508 5.20979 7.52939 5.45607C5.44716 6.28896 4.3207 8.55109 4.91077 10.7147L5.07947 11.3333H4.79166C4.59763 11.3333 4.42929 11.4672 4.38566 11.6562L3.13566 17.0729C3.08392 17.2971 3.22374 17.5209 3.44797 17.5726C3.67219 17.6243 3.89591 17.4845 3.94765 17.2603L5.12312 12.1666H5.61592C5.62179 12.1667 5.62767 12.1667 5.63356 12.1666H9.04353L10.219 17.2603C10.2707 17.4845 10.4945 17.6243 10.7187 17.5726C10.9429 17.5209 11.0827 17.2971 11.031 17.0729L9.78099 11.6562C9.73736 11.4672 9.56901 11.3333 9.37499 11.3333H5.94324L5.71474 10.4954C5.23609 8.74039 6.14984 6.90542 7.83889 6.2298C8.35614 6.0229 8.90813 5.9166 9.46523 5.9166H10.2548C10.8369 5.9166 11.4111 5.78105 11.9318 5.5207L12.0613 5.45594Z" fill="#6A6F85"/>
</svg>
