<svg width="12" height="13" viewBox="0 0 12 13" fill="none" xmlns="http://www.w3.org/2000/svg">
<path d="M5.99999 6.00008C6.27613 6.00008 6.49999 6.22394 6.49999 6.50008V8.83341C6.49999 9.10956 6.27613 9.33341 5.99999 9.33341C5.72385 9.33341 5.49999 9.10956 5.49999 8.83341V6.50008C5.49999 6.22394 5.72385 6.00008 5.99999 6.00008Z" fill="#9B9FAD"/>
<path d="M6.49999 4.16675C6.49999 3.89061 6.27613 3.66675 5.99999 3.66675C5.72385 3.66675 5.49999 3.89061 5.49999 4.16675V4.17341C5.49999 4.44956 5.72385 4.67341 5.99999 4.67341C6.27613 4.67341 6.49999 4.44956 6.49999 4.17341V4.16675Z" fill="#9B9FAD"/>
<path fill-rule="evenodd" clip-rule="evenodd" d="M0.166656 6.50008C0.166656 3.27842 2.77833 0.666748 5.99999 0.666748C9.22165 0.666748 11.8333 3.27842 11.8333 6.50008C11.8333 9.72174 9.22165 12.3334 5.99999 12.3334C2.77833 12.3334 0.166656 9.72174 0.166656 6.50008ZM5.99999 1.66675C3.33061 1.66675 1.16666 3.8307 1.16666 6.50008C1.16666 9.16946 3.33061 11.3334 5.99999 11.3334C8.66937 11.3334 10.8333 9.16946 10.8333 6.50008C10.8333 3.8307 8.66937 1.66675 5.99999 1.66675Z" fill="#9B9FAD"/>
</svg>
