<svg width="20" height="21" viewBox="0 0 20 21" fill="none" xmlns="http://www.w3.org/2000/svg">
<path d="M7.5 6.74984C7.26988 6.74984 7.08333 6.93639 7.08333 7.1665C7.08333 7.39662 7.26988 7.58317 7.5 7.58317H12.5C12.7301 7.58317 12.9167 7.39662 12.9167 7.1665C12.9167 6.93639 12.7301 6.74984 12.5 6.74984H7.5Z" fill="#6A6F85"/>
<path d="M7.5 8.83317C7.26988 8.83317 7.08333 9.01972 7.08333 9.24984C7.08333 9.47996 7.26988 9.6665 7.5 9.6665H12.5C12.7301 9.6665 12.9167 9.47996 12.9167 9.24984C12.9167 9.01972 12.7301 8.83317 12.5 8.83317H7.5Z" fill="#6A6F85"/>
<path d="M7.5 10.9165C7.26988 10.9165 7.08333 11.1031 7.08333 11.3332C7.08333 11.5633 7.26988 11.7498 7.5 11.7498H9.16667C9.39679 11.7498 9.58333 11.5633 9.58333 11.3332C9.58333 11.1031 9.39679 10.9165 9.16667 10.9165H7.5Z" fill="#6A6F85"/>
<path fill-rule="evenodd" clip-rule="evenodd" d="M11.0185 3.4165H8.9815C8.29711 3.4165 7.75795 3.4165 7.32408 3.45195C6.88143 3.48811 6.51178 3.56324 6.17586 3.7344C5.62706 4.01403 5.18086 4.46023 4.90123 5.00903C4.73007 5.34495 4.65494 5.7146 4.61878 6.15725C4.58333 6.59112 4.58333 7.13027 4.58333 7.81466V13.185C4.58333 13.8694 4.58333 14.4086 4.61878 14.8424C4.65494 15.2851 4.73007 15.6547 4.90123 15.9906C5.18086 16.5394 5.62706 16.9856 6.17586 17.2653C6.51178 17.4364 6.88143 17.5116 7.32408 17.5477C7.75795 17.5832 8.2971 17.5832 8.98148 17.5832H11.0185C11.7029 17.5832 12.242 17.5832 12.6759 17.5477C13.1186 17.5116 13.4882 17.4364 13.8241 17.2653C14.3729 16.9856 14.8191 16.5394 15.0988 15.9906C15.2699 15.6547 15.3451 15.2851 15.3812 14.8424C15.4167 14.4086 15.4167 13.8694 15.4167 13.185V7.81466C15.4167 7.13027 15.4167 6.59112 15.3812 6.15725C15.3451 5.7146 15.2699 5.34495 15.0988 5.00903C14.8191 4.46023 14.3729 4.01403 13.8241 3.7344C13.4882 3.56324 13.1186 3.48811 12.6759 3.45195C12.242 3.4165 11.7029 3.4165 11.0185 3.4165ZM6.55419 4.47691C6.75305 4.37558 7.00082 4.31447 7.39194 4.28251C7.78791 4.25016 8.29306 4.24984 9 4.24984H11C11.7069 4.24984 12.2121 4.25016 12.6081 4.28251C12.9992 4.31447 13.247 4.37558 13.4458 4.47691C13.8378 4.67664 14.1565 4.99535 14.3563 5.38736C14.4576 5.58622 14.5187 5.83399 14.5507 6.22511C14.583 6.62108 14.5833 7.12623 14.5833 7.83317V13.1665C14.5833 13.8734 14.583 14.3786 14.5507 14.7746C14.5187 15.1657 14.4576 15.4135 14.3563 15.6123C14.1565 16.0043 13.8378 16.323 13.4458 16.5228C13.247 16.6241 12.9992 16.6852 12.6081 16.7172C12.2121 16.7495 11.7069 16.7498 11 16.7498H9C8.29306 16.7498 7.78791 16.7495 7.39194 16.7172C7.00082 16.6852 6.75305 16.6241 6.55419 16.5228C6.16218 16.323 5.84347 16.0043 5.64374 15.6123C5.54241 15.4135 5.4813 15.1657 5.44934 14.7746C5.41699 14.3786 5.41667 13.8734 5.41667 13.1665V7.83317C5.41667 7.12623 5.41699 6.62108 5.44934 6.22511C5.4813 5.83399 5.54241 5.58622 5.64374 5.38736C5.84347 4.99535 6.16218 4.67664 6.55419 4.47691Z" fill="#6A6F85"/>
</svg>
