<svg width="72" height="20" viewBox="0 0 72 20" fill="none" xmlns="http://www.w3.org/2000/svg">
<g clip-path="url(#clip0_1_6214)">
<path d="M26.7357 2.71584C23.6534 2.71584 21.1549 5.22052 21.1549 8.31042C21.1549 11.4003 23.6534 13.905 26.7357 13.905C29.8178 13.905 32.3163 11.4003 32.3163 8.31042C32.3163 5.22052 29.8178 2.71584 26.7357 2.71584ZM26.7357 11.1181C25.1889 11.1181 23.9349 9.86095 23.9349 8.31042C23.9349 6.75979 25.1889 5.50283 26.7357 5.50283C28.2823 5.50283 29.5363 6.75979 29.5363 8.31042C29.5363 9.86095 28.2823 11.1181 26.7357 11.1181Z" fill="#060F33"/>
<path d="M39.2211 2.71584C36.1388 2.71584 33.6404 5.22052 33.6404 8.31042C33.6404 11.4003 36.1388 13.905 39.2211 13.905C42.3032 13.905 44.8018 11.4003 44.8018 8.31042C44.8018 5.22052 42.3032 2.71584 39.2211 2.71584ZM39.2211 11.1181C37.6744 11.1181 36.4204 9.86095 36.4204 8.31042C36.4204 6.75979 37.6744 5.50283 39.2211 5.50283C40.7677 5.50283 42.0218 6.75979 42.0218 8.31042C42.0218 9.86095 40.7677 11.1181 39.2211 11.1181Z" fill="#060F33"/>
<path d="M51.7065 2.71584C48.6244 2.71584 46.1258 5.22052 46.1258 8.31042C46.1258 11.4003 48.6244 13.905 51.7065 13.905C54.7887 13.905 57.2872 11.4003 57.2872 8.31042C57.2872 5.22052 54.7887 2.71584 51.7065 2.71584ZM51.7065 11.1181C50.1598 11.1181 48.9059 9.86095 48.9059 8.31042C48.9059 6.75979 50.1598 5.50283 51.7065 5.50283C53.2533 5.50283 54.5071 6.75979 54.5071 8.31042C54.5071 9.86095 53.2533 11.1181 51.7065 11.1181Z" fill="#060F33"/>
<path d="M59.06 13.905H61.8251V5.72205e-06H59.06V13.905Z" fill="#060F33"/>
<path d="M66.7586 13.905H63.9936V3.47333H66.7586V13.905Z" fill="#060F33"/>
<path d="M2.78008 5.59473C2.78008 4.04421 4.03401 2.78713 5.58071 2.78713C7.12742 2.78713 8.38135 4.04421 8.38135 5.59473H8.38913V13.9038H11.1692V5.59473H11.1766C11.1766 4.04421 12.4306 2.78713 13.9773 2.78713C15.524 2.78713 16.778 4.04421 16.778 5.59473V13.9038H19.558V5.59473C19.558 2.50494 17.0595 0.00014019 13.9773 0.00014019C12.3032 0.00014019 10.802 0.740153 9.77901 1.91103C8.75606 0.740153 7.25521 0.00014019 5.58071 0.00014019C2.49854 0.00014019 0 2.50494 0 5.59473V13.9038H2.78008V5.59473Z" fill="#060F33"/>
<path d="M51.7066 16.7251C50.1598 16.7251 48.9059 15.468 48.9059 13.9175H46.1259C46.1259 17.0073 48.6244 19.5122 51.7066 19.5122C54.7887 19.5122 57.2872 17.0073 57.2872 13.9175H54.5072C54.5072 15.468 53.2532 16.7251 51.7066 16.7251Z" fill="#060F33"/>
<path d="M71.7073 12.3014C71.7073 13.1872 70.9912 13.905 70.1077 13.905C69.2241 13.905 68.5076 13.1872 68.5076 12.3014C68.5076 11.4156 69.2241 10.6977 70.1077 10.6977C70.9912 10.6977 71.7073 11.4156 71.7073 12.3014Z" fill="#060F33"/>
</g>
<defs>
<clipPath id="clip0_1_6214">
<rect width="71.7073" height="19.5122" fill="white"/>
</clipPath>
</defs>
</svg>
