<svg width="36" height="37" viewBox="0 0 36 37" fill="none" xmlns="http://www.w3.org/2000/svg">
<rect y="0.5" width="36" height="36" rx="18" fill="#EEF1FE"/>
<path d="M16.125 16.4166C16.125 16.0714 15.8452 15.7916 15.5 15.7916C15.1548 15.7916 14.875 16.0714 14.875 16.4166V22.6666C14.875 23.0118 15.1548 23.2916 15.5 23.2916C15.8452 23.2916 16.125 23.0118 16.125 22.6666V16.4166Z" fill="#454BBA"/>
<path d="M21.125 18.4999C21.125 18.1547 20.8452 17.8749 20.5 17.8749C20.1548 17.8749 19.875 18.1547 19.875 18.4999V22.6666C19.875 23.0118 20.1548 23.2916 20.5 23.2916C20.8452 23.2916 21.125 23.0118 21.125 22.6666V18.4999Z" fill="#454BBA"/>
<path d="M18.625 21.4166C18.625 21.0714 18.3452 20.7916 18 20.7916C17.6548 20.7916 17.375 21.0714 17.375 21.4166V22.6666C17.375 23.0118 17.6548 23.2916 18 23.2916C18.3452 23.2916 18.625 23.0118 18.625 22.6666V21.4166Z" fill="#454BBA"/>
<path fill-rule="evenodd" clip-rule="evenodd" d="M21.0859 12.072C20.8201 12.0503 20.5107 12.0441 20.1517 12.0423C19.9178 11.5492 19.4154 11.2083 18.8333 11.2083H17.1667C16.5846 11.2083 16.0822 11.5492 15.8483 12.0423C15.4893 12.0441 15.1799 12.0503 14.9141 12.072C14.5281 12.1036 14.1794 12.1709 13.8538 12.3368C13.3442 12.5964 12.9298 13.0108 12.6702 13.5204C12.5043 13.846 12.437 14.1946 12.4055 14.5807C12.375 14.9537 12.375 15.4126 12.375 15.9737V21.8594C12.375 22.4206 12.375 22.8795 12.4055 23.2525C12.437 23.6385 12.5043 23.9872 12.6702 24.3128C12.9298 24.8224 13.3442 25.2367 13.8538 25.4964C14.1794 25.6623 14.5281 25.7296 14.9141 25.7611C15.2871 25.7916 15.746 25.7916 16.3071 25.7916H19.6929C20.254 25.7916 20.7129 25.7916 21.0859 25.7611C21.4719 25.7296 21.8206 25.6623 22.1462 25.4964C22.6558 25.2367 23.0702 24.8224 23.3298 24.3128C23.4957 23.9872 23.563 23.6385 23.5945 23.2525C23.625 22.8795 23.625 22.4206 23.625 21.8595V15.9737C23.625 15.4126 23.625 14.9537 23.5945 14.5807C23.563 14.1946 23.4957 13.846 23.3298 13.5204C23.0702 13.0108 22.6558 12.5964 22.1462 12.3368C21.8206 12.1709 21.4719 12.1036 21.0859 12.072ZM15.0159 13.3179C15.2376 13.2998 15.5045 13.2941 15.849 13.2924C16.0833 13.7846 16.5852 14.1249 17.1667 14.1249H18.8333C19.4148 14.1249 19.9167 13.7846 20.151 13.2924C20.4955 13.2941 20.7624 13.2998 20.9841 13.3179C21.2929 13.3431 21.4587 13.3894 21.5787 13.4505C21.8531 13.5903 22.0762 13.8134 22.2161 14.0878C22.2772 14.2079 22.3235 14.3737 22.3487 14.6825C22.3745 14.9985 22.375 15.4062 22.375 15.9999V21.8333C22.375 22.427 22.3745 22.8346 22.3487 23.1507C22.3235 23.4594 22.2772 23.6253 22.2161 23.7453C22.0762 24.0197 21.8531 24.2428 21.5787 24.3826C21.4587 24.4438 21.2929 24.4901 20.9841 24.5153C20.6681 24.5411 20.2604 24.5416 19.6667 24.5416H16.3333C15.7396 24.5416 15.3319 24.5411 15.0159 24.5153C14.7071 24.4901 14.5413 24.4438 14.4213 24.3826C14.1469 24.2428 13.9238 24.0197 13.7839 23.7453C13.7228 23.6253 13.6765 23.4594 13.6513 23.1507C13.6255 22.8346 13.625 22.427 13.625 21.8333V15.9999C13.625 15.4062 13.6255 14.9985 13.6513 14.6825C13.6765 14.3737 13.7228 14.2079 13.7839 14.0878C13.9238 13.8134 14.1469 13.5903 14.4213 13.4505C14.5413 13.3894 14.7071 13.3431 15.0159 13.3179Z" fill="#454BBA"/>
</svg>
