<svg width="19" height="18" viewBox="0 0 19 18" fill="none" xmlns="http://www.w3.org/2000/svg">
<path d="M10.0303 13.5303L14.0303 9.53033C14.3232 9.23744 14.3232 8.76256 14.0303 8.46967L10.0303 4.46967C9.73744 4.17678 9.26256 4.17678 8.96967 4.46967C8.67678 4.76256 8.67678 5.23744 8.96967 5.53033L11.6893 8.25H5.49211C5.08225 8.25 4.75 8.58579 4.75 9C4.75 9.41421 5.08225 9.75 5.49211 9.75H11.6893L8.96967 12.4697C8.67678 12.7626 8.67678 13.2374 8.96967 13.5303C9.26256 13.8232 9.73744 13.8232 10.0303 13.5303Z" fill="#B4B7C1"/>
<path fill-rule="evenodd" clip-rule="evenodd" d="M9.5 0.25C14.3325 0.25 18.25 4.16751 18.25 9C18.25 13.8325 14.3325 17.75 9.5 17.75C4.66751 17.75 0.75 13.8325 0.75 9C0.75 4.16751 4.66751 0.25 9.5 0.25ZM16.75 9C16.75 4.99594 13.5041 1.75 9.5 1.75C5.49594 1.75 2.25 4.99594 2.25 9C2.25 13.0041 5.49594 16.25 9.5 16.25C13.5041 16.25 16.75 13.0041 16.75 9Z" fill="#B4B7C1"/>
</svg>
