<svg width="275" height="126" viewBox="0 0 275 126" fill="none" xmlns="http://www.w3.org/2000/svg">
<g filter="url(#filter0_ii_1_3156)">
<rect x="0.5" width="274.5" height="126" rx="11" fill="#F2F4FA"/>
<rect x="15" y="8" width="245" height="110" rx="13" fill="white"/>
<rect x="35" y="24" width="58" height="22" rx="11" fill="#E0E3EB"/>
<rect x="41" y="31" width="8" height="8" rx="4" fill="#4B7BEB"/>
<rect x="55" y="28.5" width="32" height="13" rx="6.5" fill="#4B7BEB"/>
<rect x="101" y="24" width="22.5048" height="10" rx="5" fill="#E0E3EB"/>
<rect x="35" y="82" width="92.5" height="20" rx="10" fill="#E0E3EB"/>
<rect x="190" y="24" width="10" height="10" rx="3" fill="#E0E3EB"/>
<rect x="206" y="25" width="34" height="8" rx="4" fill="#E0E3EB"/>
<path d="M164.359 87.5727C159.136 88.3131 158.805 94.4797 155.544 96.2508C152.283 98.0219 147.5 92.8587 147.5 92.8587V95.8667C147.5 99.1804 150.186 101.867 153.5 101.867H234.227C237.54 101.867 240.227 99.1804 240.227 95.8667V79.0671C237.313 80.8364 236.049 89.3048 231.821 91.6795C227.593 94.0542 229.096 80.5605 225.566 73.882C222.036 67.2035 219.25 84.2874 214.938 83.1399C210.625 81.9923 209.856 89.1209 206.708 87.748C203.56 86.3752 201.687 78.9715 198.078 76.708C194.469 74.4445 193.139 55.3883 189.648 51.2224C186.158 47.0564 184.736 65.6731 181.219 66.4921C177.702 67.311 175.753 53.3246 172.789 55.3883C169.826 57.452 169.583 86.8324 164.359 87.5727Z" fill="#6A6F85"/>
<path d="M147.5 92.8768C148.347 93.7223 152.196 97.9982 155.647 96.1238C159.098 94.2493 159.189 87.5727 164.359 87.5727C169.529 87.5727 169.825 57.452 172.789 55.3883C175.752 53.3246 177.702 67.311 181.219 66.4921C184.735 65.6731 186.158 47.0564 189.648 51.2224C193.139 55.3883 194.469 74.4445 198.078 76.708C201.687 78.9715 203.212 86.1999 206.359 87.5727C209.507 88.9455 209.821 83.1398 214.937 83.1398C220.054 83.1398 222.068 67.2705 225.598 73.9489C229.128 80.6274 227.569 94.1249 231.797 91.7502C236.025 89.3754 236.956 81.2852 240.226 79.1663" stroke="#6A6F85" stroke-width="2" stroke-linecap="round" stroke-linejoin="round"/>
<g filter="url(#filter1_d_1_3156)">
<rect x="109.5" y="57" width="58" height="25" rx="12.5" fill="#454BBA" shape-rendering="crispEdges"/>
<path d="M126.738 64.074H128.726L131.106 68.232L133.5 64.074H135.39L131.89 69.8V74H130.21V69.8L126.738 64.074ZM138.108 72.754C138.36 72.754 138.598 72.7073 138.822 72.614C139.055 72.5207 139.261 72.3853 139.438 72.208C139.615 72.0213 139.755 71.7927 139.858 71.522C139.961 71.2513 140.012 70.9387 140.012 70.584C140.012 70.2293 139.961 69.9213 139.858 69.66C139.755 69.3893 139.615 69.1653 139.438 68.988C139.261 68.8013 139.055 68.666 138.822 68.582C138.598 68.4887 138.36 68.442 138.108 68.442C137.856 68.442 137.613 68.4887 137.38 68.582C137.156 68.666 136.955 68.8013 136.778 68.988C136.61 69.1653 136.47 69.3893 136.358 69.66C136.255 69.9213 136.204 70.2293 136.204 70.584C136.204 70.9387 136.255 71.2513 136.358 71.522C136.47 71.7927 136.61 72.0213 136.778 72.208C136.955 72.3853 137.156 72.5207 137.38 72.614C137.613 72.7073 137.856 72.754 138.108 72.754ZM138.108 66.972C138.621 66.972 139.093 67.0653 139.522 67.252C139.951 67.4293 140.325 67.6813 140.642 68.008C140.959 68.3253 141.207 68.7033 141.384 69.142C141.561 69.5807 141.65 70.0613 141.65 70.584C141.65 71.1067 141.561 71.592 141.384 72.04C141.207 72.4787 140.959 72.8613 140.642 73.188C140.325 73.5053 139.951 73.7573 139.522 73.944C139.093 74.1213 138.621 74.21 138.108 74.21C137.604 74.21 137.133 74.1213 136.694 73.944C136.265 73.7573 135.891 73.5053 135.574 73.188C135.266 72.8613 135.023 72.4787 134.846 72.04C134.669 71.592 134.58 71.1067 134.58 70.584C134.58 70.0613 134.669 69.5807 134.846 69.142C135.023 68.7033 135.266 68.3253 135.574 68.008C135.891 67.6813 136.265 67.4293 136.694 67.252C137.133 67.0653 137.604 66.972 138.108 66.972ZM147.669 73.244C147.501 73.552 147.235 73.79 146.871 73.958C146.516 74.1167 146.138 74.196 145.737 74.196C145.326 74.196 144.962 74.126 144.645 73.986C144.327 73.846 144.057 73.6547 143.833 73.412C143.618 73.16 143.45 72.8707 143.329 72.544C143.217 72.2173 143.161 71.8627 143.161 71.48V67.182H144.785V71.186C144.785 71.4007 144.808 71.6013 144.855 71.788C144.911 71.9747 144.995 72.138 145.107 72.278C145.219 72.418 145.359 72.53 145.527 72.614C145.704 72.698 145.914 72.74 146.157 72.74C146.633 72.74 146.987 72.6 147.221 72.32C147.463 72.0307 147.585 71.662 147.585 71.214V67.182H149.209V72.754C149.209 73.034 149.213 73.2813 149.223 73.496C149.241 73.7013 149.26 73.8693 149.279 74H147.725C147.706 73.9253 147.692 73.818 147.683 73.678C147.673 73.5287 147.669 73.384 147.669 73.244Z" fill="white"/>
</g>
<g filter="url(#filter2_d_1_3156)">
<path d="M92.6779 45.6382C92.3245 43.949 94.1327 42.6352 95.63 43.4933L106.789 49.8884C108.307 50.7585 108.054 53.0208 106.382 53.5353L101.888 54.9178C101.439 55.0557 101.054 55.3469 100.798 55.7404L98.8973 58.6688C97.9253 60.166 95.6277 59.7366 95.2622 57.9894L92.6779 45.6382Z" fill="#454BBA"/>
<path d="M93.6567 45.4334C93.48 44.5888 94.3841 43.9319 95.1328 44.361L106.291 50.756C107.05 51.1911 106.924 52.3222 106.088 52.5795L101.594 53.962L101.888 54.9178L101.594 53.962C100.921 54.1689 100.343 54.6056 99.9595 55.1959L98.0585 58.1243C97.5726 58.8729 96.4237 58.6582 96.241 57.7846L93.6567 45.4334Z" stroke="white" stroke-width="2"/>
</g>
</g>
<defs>
<filter id="filter0_ii_1_3156" x="0.5" y="-8" width="274.5" height="134" filterUnits="userSpaceOnUse" color-interpolation-filters="sRGB">
<feFlood flood-opacity="0" result="BackgroundImageFix"/>
<feBlend mode="normal" in="SourceGraphic" in2="BackgroundImageFix" result="shape"/>
<feColorMatrix in="SourceAlpha" type="matrix" values="0 0 0 0 0 0 0 0 0 0 0 0 0 0 0 0 0 0 127 0" result="hardAlpha"/>
<feOffset dy="-1"/>
<feGaussianBlur stdDeviation="3.5"/>
<feComposite in2="hardAlpha" operator="arithmetic" k2="-1" k3="1"/>
<feColorMatrix type="matrix" values="0 0 0 0 0.0235294 0 0 0 0 0.0588235 0 0 0 0 0.2 0 0 0 0.02 0"/>
<feBlend mode="normal" in2="shape" result="effect1_innerShadow_1_3156"/>
<feColorMatrix in="SourceAlpha" type="matrix" values="0 0 0 0 0 0 0 0 0 0 0 0 0 0 0 0 0 0 127 0" result="hardAlpha"/>
<feOffset dy="-8"/>
<feGaussianBlur stdDeviation="8"/>
<feComposite in2="hardAlpha" operator="arithmetic" k2="-1" k3="1"/>
<feColorMatrix type="matrix" values="0 0 0 0 0.0235294 0 0 0 0 0.0588235 0 0 0 0 0.2 0 0 0 0.02 0"/>
<feBlend mode="normal" in2="effect1_innerShadow_1_3156" result="effect2_innerShadow_1_3156"/>
</filter>
<filter id="filter1_d_1_3156" x="89.5" y="46" width="98" height="65" filterUnits="userSpaceOnUse" color-interpolation-filters="sRGB">
<feFlood flood-opacity="0" result="BackgroundImageFix"/>
<feColorMatrix in="SourceAlpha" type="matrix" values="0 0 0 0 0 0 0 0 0 0 0 0 0 0 0 0 0 0 127 0" result="hardAlpha"/>
<feOffset dy="9"/>
<feGaussianBlur stdDeviation="10"/>
<feComposite in2="hardAlpha" operator="out"/>
<feColorMatrix type="matrix" values="0 0 0 0 0.270588 0 0 0 0 0.294118 0 0 0 0 0.729412 0 0 0 0.25 0"/>
<feBlend mode="normal" in2="BackgroundImageFix" result="effect1_dropShadow_1_3156"/>
<feBlend mode="normal" in="SourceGraphic" in2="effect1_dropShadow_1_3156" result="shape"/>
</filter>
<filter id="filter2_d_1_3156" x="72.7572" y="33.2852" width="54.9131" height="56.1094" filterUnits="userSpaceOnUse" color-interpolation-filters="sRGB">
<feFlood flood-opacity="0" result="BackgroundImageFix"/>
<feColorMatrix in="SourceAlpha" type="matrix" values="0 0 0 0 0 0 0 0 0 0 0 0 0 0 0 0 0 0 127 0" result="hardAlpha"/>
<feOffset dy="9.93794"/>
<feGaussianBlur stdDeviation="9.93794"/>
<feColorMatrix type="matrix" values="0 0 0 0 0.270588 0 0 0 0 0.294118 0 0 0 0 0.729412 0 0 0 0.28 0"/>
<feBlend mode="normal" in2="BackgroundImageFix" result="effect1_dropShadow_1_3156"/>
<feBlend mode="normal" in="SourceGraphic" in2="effect1_dropShadow_1_3156" result="shape"/>
</filter>
</defs>
</svg>
