<svg width="275" height="126" viewBox="0 0 275 126" fill="none" xmlns="http://www.w3.org/2000/svg">
<g filter="url(#filter0_ii_1_3881)">
<g clip-path="url(#clip0_1_3881)">
<rect x="0.5" width="274.5" height="126" rx="11" fill="#F2F4FA"/>
<rect x="16" y="12" width="245" height="152" rx="8" fill="white"/>
<rect x="153.11" y="23.9873" width="7.49235" height="7.49235" rx="2.24771" fill="#4B7BEB"/>
<rect x="165.098" y="24.737" width="25.474" height="5.99388" rx="2.99694" fill="#4B7BEB"/>
<rect x="208.554" y="23.9873" width="7.49235" height="7.49235" rx="2.24771" fill="#E0E3EB"/>
<rect x="220.541" y="24.737" width="25.474" height="5.99388" rx="2.99694" fill="#E0E3EB"/>
<path d="M36.1968 86.7049C36.1968 83.3945 38.8804 80.711 42.1907 80.711H48.4438C51.7541 80.711 54.4377 83.3946 54.4377 86.7049V152.013H36.1968V86.7049Z" fill="#6A6F85"/>
<path d="M82.8427 53.5243C82.8427 50.214 85.5262 47.5305 88.8365 47.5305H95.0896C98.4 47.5305 101.084 50.214 101.084 53.5243V152.012H82.8427V53.5243Z" fill="#4B7BEB"/>
<path d="M129.381 61.675C129.381 58.3647 132.064 55.6812 135.375 55.6812H141.906C145.217 55.6812 147.9 58.3647 147.9 61.675V152.012H129.381V61.675Z" fill="#6A6F85"/>
<path d="M176.119 77.5269C176.119 74.2166 178.803 71.533 182.113 71.533H188.874C192.185 71.533 194.868 74.2166 194.868 77.5269V152.012H176.119V77.5269Z" fill="#6A6F85"/>
<path d="M222.223 116.355C222.223 113.044 224.907 110.361 228.217 110.361H234.979C238.289 110.361 240.972 113.044 240.972 116.355V152.012H222.223V116.355Z" fill="#6A6F85"/>
<g filter="url(#filter1_d_1_3881)">
<rect x="191.5" y="53" width="58" height="25" rx="12.5" fill="#454BBA" shape-rendering="crispEdges"/>
<path d="M208.738 60.074H210.726L213.106 64.232L215.5 60.074H217.39L213.89 65.8V70H212.21V65.8L208.738 60.074ZM220.108 68.754C220.36 68.754 220.598 68.7073 220.822 68.614C221.055 68.5207 221.261 68.3853 221.438 68.208C221.615 68.0213 221.755 67.7927 221.858 67.522C221.961 67.2513 222.012 66.9387 222.012 66.584C222.012 66.2293 221.961 65.9213 221.858 65.66C221.755 65.3893 221.615 65.1653 221.438 64.988C221.261 64.8013 221.055 64.666 220.822 64.582C220.598 64.4887 220.36 64.442 220.108 64.442C219.856 64.442 219.613 64.4887 219.38 64.582C219.156 64.666 218.955 64.8013 218.778 64.988C218.61 65.1653 218.47 65.3893 218.358 65.66C218.255 65.9213 218.204 66.2293 218.204 66.584C218.204 66.9387 218.255 67.2513 218.358 67.522C218.47 67.7927 218.61 68.0213 218.778 68.208C218.955 68.3853 219.156 68.5207 219.38 68.614C219.613 68.7073 219.856 68.754 220.108 68.754ZM220.108 62.972C220.621 62.972 221.093 63.0653 221.522 63.252C221.951 63.4293 222.325 63.6813 222.642 64.008C222.959 64.3253 223.207 64.7033 223.384 65.142C223.561 65.5807 223.65 66.0613 223.65 66.584C223.65 67.1067 223.561 67.592 223.384 68.04C223.207 68.4787 222.959 68.8613 222.642 69.188C222.325 69.5053 221.951 69.7573 221.522 69.944C221.093 70.1213 220.621 70.21 220.108 70.21C219.604 70.21 219.133 70.1213 218.694 69.944C218.265 69.7573 217.891 69.5053 217.574 69.188C217.266 68.8613 217.023 68.4787 216.846 68.04C216.669 67.592 216.58 67.1067 216.58 66.584C216.58 66.0613 216.669 65.5807 216.846 65.142C217.023 64.7033 217.266 64.3253 217.574 64.008C217.891 63.6813 218.265 63.4293 218.694 63.252C219.133 63.0653 219.604 62.972 220.108 62.972ZM229.669 69.244C229.501 69.552 229.235 69.79 228.871 69.958C228.516 70.1167 228.138 70.196 227.737 70.196C227.326 70.196 226.962 70.126 226.645 69.986C226.327 69.846 226.057 69.6547 225.833 69.412C225.618 69.16 225.45 68.8707 225.329 68.544C225.217 68.2173 225.161 67.8627 225.161 67.48V63.182H226.785V67.186C226.785 67.4007 226.808 67.6013 226.855 67.788C226.911 67.9747 226.995 68.138 227.107 68.278C227.219 68.418 227.359 68.53 227.527 68.614C227.704 68.698 227.914 68.74 228.157 68.74C228.633 68.74 228.987 68.6 229.221 68.32C229.463 68.0307 229.585 67.662 229.585 67.214V63.182H231.209V68.754C231.209 69.034 231.213 69.2813 231.223 69.496C231.241 69.7013 231.26 69.8693 231.279 70H229.725C229.706 69.9253 229.692 69.818 229.683 69.678C229.673 69.5287 229.669 69.384 229.669 69.244Z" fill="white"/>
</g>
<g filter="url(#filter2_d_1_3881)">
<path d="M174.678 41.6382C174.324 39.949 176.133 38.6352 177.63 39.4933L188.789 45.8884C190.307 46.7585 190.054 49.0208 188.382 49.5353L183.888 50.9178C183.439 51.0557 183.054 51.3469 182.798 51.7404L180.897 54.6688C179.925 56.166 177.628 55.7366 177.262 53.9894L174.678 41.6382Z" fill="#454BBA"/>
<path d="M175.657 41.4334C175.48 40.5888 176.384 39.9319 177.133 40.361L188.291 46.756C189.05 47.1911 188.924 48.3222 188.088 48.5795L183.594 49.962L183.888 50.9178L183.594 49.962C182.921 50.1689 182.343 50.6056 181.96 51.1959L180.059 54.1243C179.573 54.8729 178.424 54.6582 178.241 53.7846L175.657 41.4334Z" stroke="white" stroke-width="2"/>
</g>
</g>
</g>
<defs>
<filter id="filter0_ii_1_3881" x="0.5" y="-8" width="274.5" height="134" filterUnits="userSpaceOnUse" color-interpolation-filters="sRGB">
<feFlood flood-opacity="0" result="BackgroundImageFix"/>
<feBlend mode="normal" in="SourceGraphic" in2="BackgroundImageFix" result="shape"/>
<feColorMatrix in="SourceAlpha" type="matrix" values="0 0 0 0 0 0 0 0 0 0 0 0 0 0 0 0 0 0 127 0" result="hardAlpha"/>
<feOffset dy="-1"/>
<feGaussianBlur stdDeviation="3.5"/>
<feComposite in2="hardAlpha" operator="arithmetic" k2="-1" k3="1"/>
<feColorMatrix type="matrix" values="0 0 0 0 0.0235294 0 0 0 0 0.0588235 0 0 0 0 0.2 0 0 0 0.02 0"/>
<feBlend mode="normal" in2="shape" result="effect1_innerShadow_1_3881"/>
<feColorMatrix in="SourceAlpha" type="matrix" values="0 0 0 0 0 0 0 0 0 0 0 0 0 0 0 0 0 0 127 0" result="hardAlpha"/>
<feOffset dy="-8"/>
<feGaussianBlur stdDeviation="8"/>
<feComposite in2="hardAlpha" operator="arithmetic" k2="-1" k3="1"/>
<feColorMatrix type="matrix" values="0 0 0 0 0.0235294 0 0 0 0 0.0588235 0 0 0 0 0.2 0 0 0 0.02 0"/>
<feBlend mode="normal" in2="effect1_innerShadow_1_3881" result="effect2_innerShadow_1_3881"/>
</filter>
<filter id="filter1_d_1_3881" x="171.5" y="42" width="98" height="65" filterUnits="userSpaceOnUse" color-interpolation-filters="sRGB">
<feFlood flood-opacity="0" result="BackgroundImageFix"/>
<feColorMatrix in="SourceAlpha" type="matrix" values="0 0 0 0 0 0 0 0 0 0 0 0 0 0 0 0 0 0 127 0" result="hardAlpha"/>
<feOffset dy="9"/>
<feGaussianBlur stdDeviation="10"/>
<feComposite in2="hardAlpha" operator="out"/>
<feColorMatrix type="matrix" values="0 0 0 0 0.270588 0 0 0 0 0.294118 0 0 0 0 0.729412 0 0 0 0.25 0"/>
<feBlend mode="normal" in2="BackgroundImageFix" result="effect1_dropShadow_1_3881"/>
<feBlend mode="normal" in="SourceGraphic" in2="effect1_dropShadow_1_3881" result="shape"/>
</filter>
<filter id="filter2_d_1_3881" x="154.757" y="29.2853" width="54.9131" height="56.1094" filterUnits="userSpaceOnUse" color-interpolation-filters="sRGB">
<feFlood flood-opacity="0" result="BackgroundImageFix"/>
<feColorMatrix in="SourceAlpha" type="matrix" values="0 0 0 0 0 0 0 0 0 0 0 0 0 0 0 0 0 0 127 0" result="hardAlpha"/>
<feOffset dy="9.93794"/>
<feGaussianBlur stdDeviation="9.93794"/>
<feColorMatrix type="matrix" values="0 0 0 0 0.270588 0 0 0 0 0.294118 0 0 0 0 0.729412 0 0 0 0.28 0"/>
<feBlend mode="normal" in2="BackgroundImageFix" result="effect1_dropShadow_1_3881"/>
<feBlend mode="normal" in="SourceGraphic" in2="effect1_dropShadow_1_3881" result="shape"/>
</filter>
<clipPath id="clip0_1_3881">
<rect x="0.5" width="274.5" height="126" rx="11" fill="white"/>
</clipPath>
</defs>
</svg>
