<svg width="275" height="126" viewBox="0 0 275 126" fill="none" xmlns="http://www.w3.org/2000/svg">
<g filter="url(#filter0_ii_1_4138)">
<g clip-path="url(#clip0_1_4138)">
<rect x="0.5" width="274.5" height="126" rx="11" fill="#F2F4FA"/>
<rect x="13" y="9" width="92" height="109" rx="8" fill="white"/>
<rect x="21" y="17" width="76" height="49" rx="5" fill="#E0E3EB"/>
<path d="M59 37.7499C59 36.5993 59.9327 35.6666 61.0833 35.6666C62.2339 35.6666 63.1666 36.5993 63.1666 37.7499C63.1666 38.9005 62.2339 39.8333 61.0833 39.8333C59.9327 39.8333 59 38.9005 59 37.7499Z" fill="#6A6F85"/>
<path fill-rule="evenodd" clip-rule="evenodd" d="M57.2968 32.3333C56.161 32.3332 55.2576 32.3332 54.5288 32.3928C53.7825 32.4538 53.1461 32.5813 52.5634 32.8782C51.6226 33.3576 50.8576 34.1225 50.3783 35.0633C50.0814 35.646 49.9538 36.2824 49.8928 37.0287C49.8333 37.7576 49.8333 38.6609 49.8333 39.7968V43.2031C49.8333 44.3389 49.8333 45.2423 49.8928 45.9711C49.9538 46.7174 50.0814 47.3538 50.3783 47.9365C50.8576 48.8773 51.6226 49.6423 52.5634 50.1216C53.1461 50.4185 53.7825 50.5461 54.5288 50.6071C55.2576 50.6666 56.1609 50.6666 57.2968 50.6666H60.7031C61.839 50.6666 62.7424 50.6666 63.4712 50.6071C64.2175 50.5461 64.8539 50.4185 65.4366 50.1216C66.3774 49.6423 67.1423 48.8773 67.6217 47.9365C67.9186 47.3538 68.0461 46.7174 68.1071 45.9711C68.1667 45.2423 68.1667 44.339 68.1666 43.2031V39.7968C68.1667 38.6609 68.1667 37.7575 68.1071 37.0287C68.0461 36.2824 67.9186 35.646 67.6217 35.0633C67.1423 34.1225 66.3774 33.3576 65.4366 32.8782C64.8539 32.5813 64.2175 32.4538 63.4712 32.3928C62.7423 32.3332 61.839 32.3332 60.7031 32.3333H57.2968ZM53.32 34.3632C53.6286 34.206 54.0212 34.1065 54.6645 34.0539C55.3175 34.0006 56.1528 33.9999 57.3333 33.9999H60.6666C61.8472 33.9999 62.6825 34.0006 63.3354 34.0539C63.9787 34.1065 64.3714 34.206 64.6799 34.3632C65.3072 34.6828 65.8171 35.1927 66.1367 35.82C66.2939 36.1285 66.3934 36.5212 66.446 37.1645C66.4993 37.8174 66.5 38.6527 66.5 39.8333V43.1666C66.5 43.4653 66.4999 43.7418 66.499 43.999L65.1785 42.6784C64.5276 42.0276 63.4723 42.0276 62.8215 42.6784L60.9613 44.5386C60.7986 44.7013 60.5347 44.7013 60.372 44.5386L55.1785 39.3451C54.5276 38.6942 53.4723 38.6942 52.8215 39.3451L51.5 40.6666V39.8333C51.5 38.6527 51.5006 37.8174 51.554 37.1645C51.6065 36.5212 51.7061 36.1285 51.8633 35.82C52.1829 35.1927 52.6928 34.6828 53.32 34.3632Z" fill="#6A6F85"/>
<path d="M59 37.7499C59 36.5993 59.9327 35.6666 61.0833 35.6666C62.2339 35.6666 63.1666 36.5993 63.1666 37.7499C63.1666 38.9005 62.2339 39.8333 61.0833 39.8333C59.9327 39.8333 59 38.9005 59 37.7499Z" stroke="#6A6F85" stroke-width="0.835"/>
<path fill-rule="evenodd" clip-rule="evenodd" d="M57.2968 32.3333C56.161 32.3332 55.2576 32.3332 54.5288 32.3928C53.7825 32.4538 53.1461 32.5813 52.5634 32.8782C51.6226 33.3576 50.8576 34.1225 50.3783 35.0633C50.0814 35.646 49.9538 36.2824 49.8928 37.0287C49.8333 37.7576 49.8333 38.6609 49.8333 39.7968V43.2031C49.8333 44.3389 49.8333 45.2423 49.8928 45.9711C49.9538 46.7174 50.0814 47.3538 50.3783 47.9365C50.8576 48.8773 51.6226 49.6423 52.5634 50.1216C53.1461 50.4185 53.7825 50.5461 54.5288 50.6071C55.2576 50.6666 56.1609 50.6666 57.2968 50.6666H60.7031C61.839 50.6666 62.7424 50.6666 63.4712 50.6071C64.2175 50.5461 64.8539 50.4185 65.4366 50.1216C66.3774 49.6423 67.1423 48.8773 67.6217 47.9365C67.9186 47.3538 68.0461 46.7174 68.1071 45.9711C68.1667 45.2423 68.1667 44.339 68.1666 43.2031V39.7968C68.1667 38.6609 68.1667 37.7575 68.1071 37.0287C68.0461 36.2824 67.9186 35.646 67.6217 35.0633C67.1423 34.1225 66.3774 33.3576 65.4366 32.8782C64.8539 32.5813 64.2175 32.4538 63.4712 32.3928C62.7423 32.3332 61.839 32.3332 60.7031 32.3333H57.2968ZM53.32 34.3632C53.6286 34.206 54.0212 34.1065 54.6645 34.0539C55.3175 34.0006 56.1528 33.9999 57.3333 33.9999H60.6666C61.8472 33.9999 62.6825 34.0006 63.3354 34.0539C63.9787 34.1065 64.3714 34.206 64.6799 34.3632C65.3072 34.6828 65.8171 35.1927 66.1367 35.82C66.2939 36.1285 66.3934 36.5212 66.446 37.1645C66.4993 37.8174 66.5 38.6527 66.5 39.8333V43.1666C66.5 43.4653 66.4999 43.7418 66.499 43.999L65.1785 42.6784C64.5276 42.0276 63.4723 42.0276 62.8215 42.6784L60.9613 44.5386C60.7986 44.7013 60.5347 44.7013 60.372 44.5386L55.1785 39.3451C54.5276 38.6942 53.4723 38.6942 52.8215 39.3451L51.5 40.6666V39.8333C51.5 38.6527 51.5006 37.8174 51.554 37.1645C51.6065 36.5212 51.7061 36.1285 51.8633 35.82C52.1829 35.1927 52.6928 34.6828 53.32 34.3632Z" stroke="#6A6F85" stroke-width="0.835"/>
<rect x="21" y="74" width="64.9666" height="8" rx="4" fill="#4B7BEB"/>
<rect x="21" y="86" width="33.2863" height="6" rx="3" fill="#E0E3EB"/>
<g clip-path="url(#clip1_1_4138)">
<path d="M26.6625 101.173C26.2572 100.919 25.7428 100.919 25.3375 101.173L22.8375 102.735C22.472 102.964 22.25 103.364 22.25 103.795V106.205C22.25 106.636 22.472 107.036 22.8375 107.265L25.3375 108.827C25.7428 109.081 26.2572 109.081 26.6625 108.827L29.1625 107.265C29.528 107.036 29.75 106.636 29.75 106.205V103.795C29.75 103.364 29.528 102.964 29.1625 102.735L26.6625 101.173Z" fill="#E0E3EB" stroke="#E0E3EB" stroke-linecap="round"/>
</g>
<g clip-path="url(#clip2_1_4138)">
<path d="M44.6625 101.173C44.2572 100.919 43.7428 100.919 43.3375 101.173L40.8375 102.735C40.472 102.964 40.25 103.364 40.25 103.795V106.205C40.25 106.636 40.472 107.036 40.8375 107.265L43.3375 108.827C43.7428 109.081 44.2572 109.081 44.6625 108.827L47.1625 107.265C47.528 107.036 47.75 106.636 47.75 106.205V103.795C47.75 103.364 47.528 102.964 47.1625 102.735L44.6625 101.173Z" fill="#E0E3EB" stroke="#E0E3EB" stroke-linecap="round"/>
</g>
<g clip-path="url(#clip3_1_4138)">
<path d="M62.6625 101.173C62.2572 100.919 61.7428 100.919 61.3375 101.173L58.8375 102.735C58.472 102.964 58.25 103.364 58.25 103.795V106.205C58.25 106.636 58.472 107.036 58.8375 107.265L61.3375 108.827C61.7428 109.081 62.2572 109.081 62.6625 108.827L65.1625 107.265C65.528 107.036 65.75 106.636 65.75 106.205V103.795C65.75 103.364 65.528 102.964 65.1625 102.735L62.6625 101.173Z" fill="#E0E3EB" stroke="#E0E3EB" stroke-linecap="round"/>
</g>
<g clip-path="url(#clip4_1_4138)">
<path d="M80.6625 101.173C80.2572 100.919 79.7428 100.919 79.3375 101.173L76.8375 102.735C76.472 102.964 76.25 103.364 76.25 103.795V106.205C76.25 106.636 76.472 107.036 76.8375 107.265L79.3375 108.827C79.7428 109.081 80.2572 109.081 80.6625 108.827L83.1625 107.265C83.528 107.036 83.75 106.636 83.75 106.205V103.795C83.75 103.364 83.528 102.964 83.1625 102.735L80.6625 101.173Z" fill="#E0E3EB" stroke="#E0E3EB" stroke-linecap="round"/>
</g>
<rect x="115" y="9" width="92" height="109" rx="8" fill="white"/>
<rect x="123" y="17" width="76" height="49" rx="5" fill="#E0E3EB"/>
<path d="M161 37.7499C161 36.5993 161.933 35.6666 163.083 35.6666C164.234 35.6666 165.167 36.5993 165.167 37.7499C165.167 38.9005 164.234 39.8333 163.083 39.8333C161.933 39.8333 161 38.9005 161 37.7499Z" fill="#6A6F85"/>
<path fill-rule="evenodd" clip-rule="evenodd" d="M159.297 32.3333C158.161 32.3332 157.258 32.3332 156.529 32.3928C155.782 32.4538 155.146 32.5813 154.563 32.8782C153.623 33.3576 152.858 34.1225 152.378 35.0633C152.081 35.646 151.954 36.2824 151.893 37.0287C151.833 37.7576 151.833 38.6609 151.833 39.7968V43.2031C151.833 44.3389 151.833 45.2423 151.893 45.9711C151.954 46.7174 152.081 47.3538 152.378 47.9365C152.858 48.8773 153.623 49.6423 154.563 50.1216C155.146 50.4185 155.782 50.5461 156.529 50.6071C157.258 50.6666 158.161 50.6666 159.297 50.6666H162.703C163.839 50.6666 164.742 50.6666 165.471 50.6071C166.218 50.5461 166.854 50.4185 167.437 50.1216C168.377 49.6423 169.142 48.8773 169.622 47.9365C169.919 47.3538 170.046 46.7174 170.107 45.9711C170.167 45.2423 170.167 44.339 170.167 43.2031V39.7968C170.167 38.6609 170.167 37.7575 170.107 37.0287C170.046 36.2824 169.919 35.646 169.622 35.0633C169.142 34.1225 168.377 33.3576 167.437 32.8782C166.854 32.5813 166.218 32.4538 165.471 32.3928C164.742 32.3332 163.839 32.3332 162.703 32.3333H159.297ZM155.32 34.3632C155.629 34.206 156.021 34.1065 156.665 34.0539C157.318 34.0006 158.153 33.9999 159.333 33.9999H162.667C163.847 33.9999 164.682 34.0006 165.335 34.0539C165.979 34.1065 166.371 34.206 166.68 34.3632C167.307 34.6828 167.817 35.1927 168.137 35.82C168.294 36.1285 168.393 36.5212 168.446 37.1645C168.499 37.8174 168.5 38.6527 168.5 39.8333V43.1666C168.5 43.4653 168.5 43.7418 168.499 43.999L167.178 42.6784C166.528 42.0276 165.472 42.0276 164.821 42.6784L162.961 44.5386C162.799 44.7013 162.535 44.7013 162.372 44.5386L157.178 39.3451C156.528 38.6942 155.472 38.6942 154.821 39.3451L153.5 40.6666V39.8333C153.5 38.6527 153.501 37.8174 153.554 37.1645C153.607 36.5212 153.706 36.1285 153.863 35.82C154.183 35.1927 154.693 34.6828 155.32 34.3632Z" fill="#6A6F85"/>
<path d="M161 37.7499C161 36.5993 161.933 35.6666 163.083 35.6666C164.234 35.6666 165.167 36.5993 165.167 37.7499C165.167 38.9005 164.234 39.8333 163.083 39.8333C161.933 39.8333 161 38.9005 161 37.7499Z" stroke="#6A6F85" stroke-width="0.835"/>
<path fill-rule="evenodd" clip-rule="evenodd" d="M159.297 32.3333C158.161 32.3332 157.258 32.3332 156.529 32.3928C155.782 32.4538 155.146 32.5813 154.563 32.8782C153.623 33.3576 152.858 34.1225 152.378 35.0633C152.081 35.646 151.954 36.2824 151.893 37.0287C151.833 37.7576 151.833 38.6609 151.833 39.7968V43.2031C151.833 44.3389 151.833 45.2423 151.893 45.9711C151.954 46.7174 152.081 47.3538 152.378 47.9365C152.858 48.8773 153.623 49.6423 154.563 50.1216C155.146 50.4185 155.782 50.5461 156.529 50.6071C157.258 50.6666 158.161 50.6666 159.297 50.6666H162.703C163.839 50.6666 164.742 50.6666 165.471 50.6071C166.218 50.5461 166.854 50.4185 167.437 50.1216C168.377 49.6423 169.142 48.8773 169.622 47.9365C169.919 47.3538 170.046 46.7174 170.107 45.9711C170.167 45.2423 170.167 44.339 170.167 43.2031V39.7968C170.167 38.6609 170.167 37.7575 170.107 37.0287C170.046 36.2824 169.919 35.646 169.622 35.0633C169.142 34.1225 168.377 33.3576 167.437 32.8782C166.854 32.5813 166.218 32.4538 165.471 32.3928C164.742 32.3332 163.839 32.3332 162.703 32.3333H159.297ZM155.32 34.3632C155.629 34.206 156.021 34.1065 156.665 34.0539C157.318 34.0006 158.153 33.9999 159.333 33.9999H162.667C163.847 33.9999 164.682 34.0006 165.335 34.0539C165.979 34.1065 166.371 34.206 166.68 34.3632C167.307 34.6828 167.817 35.1927 168.137 35.82C168.294 36.1285 168.393 36.5212 168.446 37.1645C168.499 37.8174 168.5 38.6527 168.5 39.8333V43.1666C168.5 43.4653 168.5 43.7418 168.499 43.999L167.178 42.6784C166.528 42.0276 165.472 42.0276 164.821 42.6784L162.961 44.5386C162.799 44.7013 162.535 44.7013 162.372 44.5386L157.178 39.3451C156.528 38.6942 155.472 38.6942 154.821 39.3451L153.5 40.6666V39.8333C153.5 38.6527 153.501 37.8174 153.554 37.1645C153.607 36.5212 153.706 36.1285 153.863 35.82C154.183 35.1927 154.693 34.6828 155.32 34.3632Z" stroke="#6A6F85" stroke-width="0.835"/>
<rect x="123" y="74" width="64.9666" height="8" rx="4" fill="#4B7BEB"/>
<rect x="123" y="86" width="33.2863" height="6" rx="3" fill="#E0E3EB"/>
<g clip-path="url(#clip5_1_4138)">
<path d="M128.662 101.173C128.257 100.919 127.743 100.919 127.338 101.173L124.838 102.735C124.472 102.964 124.25 103.364 124.25 103.795V106.205C124.25 106.636 124.472 107.036 124.838 107.265L127.338 108.827C127.743 109.081 128.257 109.081 128.662 108.827L131.162 107.265C131.528 107.036 131.75 106.636 131.75 106.205V103.795C131.75 103.364 131.528 102.964 131.162 102.735L128.662 101.173Z" fill="#E0E3EB" stroke="#E0E3EB" stroke-linecap="round"/>
</g>
<g clip-path="url(#clip6_1_4138)">
<path d="M146.662 101.173C146.257 100.919 145.743 100.919 145.338 101.173L142.838 102.735C142.472 102.964 142.25 103.364 142.25 103.795V106.205C142.25 106.636 142.472 107.036 142.838 107.265L145.338 108.827C145.743 109.081 146.257 109.081 146.662 108.827L149.162 107.265C149.528 107.036 149.75 106.636 149.75 106.205V103.795C149.75 103.364 149.528 102.964 149.162 102.735L146.662 101.173Z" fill="#E0E3EB" stroke="#E0E3EB" stroke-linecap="round"/>
</g>
<g clip-path="url(#clip7_1_4138)">
<path d="M164.662 101.173C164.257 100.919 163.743 100.919 163.338 101.173L160.838 102.735C160.472 102.964 160.25 103.364 160.25 103.795V106.205C160.25 106.636 160.472 107.036 160.838 107.265L163.338 108.827C163.743 109.081 164.257 109.081 164.662 108.827L167.162 107.265C167.528 107.036 167.75 106.636 167.75 106.205V103.795C167.75 103.364 167.528 102.964 167.162 102.735L164.662 101.173Z" fill="#E0E3EB" stroke="#E0E3EB" stroke-linecap="round"/>
</g>
<g clip-path="url(#clip8_1_4138)">
<path d="M182.662 101.173C182.257 100.919 181.743 100.919 181.338 101.173L178.838 102.735C178.472 102.964 178.25 103.364 178.25 103.795V106.205C178.25 106.636 178.472 107.036 178.838 107.265L181.338 108.827C181.743 109.081 182.257 109.081 182.662 108.827L185.162 107.265C185.528 107.036 185.75 106.636 185.75 106.205V103.795C185.75 103.364 185.528 102.964 185.162 102.735L182.662 101.173Z" fill="#E0E3EB" stroke="#E0E3EB" stroke-linecap="round"/>
</g>
<rect x="217" y="9" width="92" height="109" rx="8" fill="white"/>
<rect x="225" y="17" width="76" height="49" rx="5" fill="#E0E3EB"/>
<path d="M263 37.7499C263 36.5993 263.933 35.6666 265.083 35.6666C266.234 35.6666 267.167 36.5993 267.167 37.7499C267.167 38.9005 266.234 39.8333 265.083 39.8333C263.933 39.8333 263 38.9005 263 37.7499Z" fill="#6A6F85"/>
<path fill-rule="evenodd" clip-rule="evenodd" d="M261.297 32.3333C260.161 32.3332 259.258 32.3332 258.529 32.3928C257.783 32.4538 257.146 32.5813 256.563 32.8782C255.623 33.3576 254.858 34.1225 254.378 35.0633C254.081 35.646 253.954 36.2824 253.893 37.0287C253.833 37.7576 253.833 38.6609 253.833 39.7968V43.2031C253.833 44.3389 253.833 45.2423 253.893 45.9711C253.954 46.7174 254.081 47.3538 254.378 47.9365C254.858 48.8773 255.623 49.6423 256.563 50.1216C257.146 50.4185 257.783 50.5461 258.529 50.6071C259.258 50.6666 260.161 50.6666 261.297 50.6666H264.703C265.839 50.6666 266.742 50.6666 267.471 50.6071C268.218 50.5461 268.854 50.4185 269.437 50.1216C270.377 49.6423 271.142 48.8773 271.622 47.9365C271.919 47.3538 272.046 46.7174 272.107 45.9711C272.167 45.2423 272.167 44.339 272.167 43.2031V39.7968C272.167 38.6609 272.167 37.7575 272.107 37.0287C272.046 36.2824 271.919 35.646 271.622 35.0633C271.142 34.1225 270.377 33.3576 269.437 32.8782C268.854 32.5813 268.218 32.4538 267.471 32.3928C266.742 32.3332 265.839 32.3332 264.703 32.3333H261.297ZM257.32 34.3632C257.629 34.206 258.021 34.1065 258.665 34.0539C259.318 34.0006 260.153 33.9999 261.333 33.9999H264.667C265.847 33.9999 266.683 34.0006 267.336 34.0539C267.979 34.1065 268.371 34.206 268.68 34.3632C269.307 34.6828 269.817 35.1927 270.137 35.82C270.294 36.1285 270.393 36.5212 270.446 37.1645C270.499 37.8174 270.5 38.6527 270.5 39.8333V43.1666C270.5 43.4653 270.5 43.7418 270.499 43.999L269.179 42.6784C268.528 42.0276 267.472 42.0276 266.822 42.6784L264.961 44.5386C264.799 44.7013 264.535 44.7013 264.372 44.5386L259.179 39.3451C258.528 38.6942 257.472 38.6942 256.822 39.3451L255.5 40.6666V39.8333C255.5 38.6527 255.501 37.8174 255.554 37.1645C255.607 36.5212 255.706 36.1285 255.863 35.82C256.183 35.1927 256.693 34.6828 257.32 34.3632Z" fill="#6A6F85"/>
<path d="M263 37.7499C263 36.5993 263.933 35.6666 265.083 35.6666C266.234 35.6666 267.167 36.5993 267.167 37.7499C267.167 38.9005 266.234 39.8333 265.083 39.8333C263.933 39.8333 263 38.9005 263 37.7499Z" stroke="#6A6F85" stroke-width="0.835"/>
<path fill-rule="evenodd" clip-rule="evenodd" d="M261.297 32.3333C260.161 32.3332 259.258 32.3332 258.529 32.3928C257.783 32.4538 257.146 32.5813 256.563 32.8782C255.623 33.3576 254.858 34.1225 254.378 35.0633C254.081 35.646 253.954 36.2824 253.893 37.0287C253.833 37.7576 253.833 38.6609 253.833 39.7968V43.2031C253.833 44.3389 253.833 45.2423 253.893 45.9711C253.954 46.7174 254.081 47.3538 254.378 47.9365C254.858 48.8773 255.623 49.6423 256.563 50.1216C257.146 50.4185 257.783 50.5461 258.529 50.6071C259.258 50.6666 260.161 50.6666 261.297 50.6666H264.703C265.839 50.6666 266.742 50.6666 267.471 50.6071C268.218 50.5461 268.854 50.4185 269.437 50.1216C270.377 49.6423 271.142 48.8773 271.622 47.9365C271.919 47.3538 272.046 46.7174 272.107 45.9711C272.167 45.2423 272.167 44.339 272.167 43.2031V39.7968C272.167 38.6609 272.167 37.7575 272.107 37.0287C272.046 36.2824 271.919 35.646 271.622 35.0633C271.142 34.1225 270.377 33.3576 269.437 32.8782C268.854 32.5813 268.218 32.4538 267.471 32.3928C266.742 32.3332 265.839 32.3332 264.703 32.3333H261.297ZM257.32 34.3632C257.629 34.206 258.021 34.1065 258.665 34.0539C259.318 34.0006 260.153 33.9999 261.333 33.9999H264.667C265.847 33.9999 266.683 34.0006 267.336 34.0539C267.979 34.1065 268.371 34.206 268.68 34.3632C269.307 34.6828 269.817 35.1927 270.137 35.82C270.294 36.1285 270.393 36.5212 270.446 37.1645C270.499 37.8174 270.5 38.6527 270.5 39.8333V43.1666C270.5 43.4653 270.5 43.7418 270.499 43.999L269.179 42.6784C268.528 42.0276 267.472 42.0276 266.822 42.6784L264.961 44.5386C264.799 44.7013 264.535 44.7013 264.372 44.5386L259.179 39.3451C258.528 38.6942 257.472 38.6942 256.822 39.3451L255.5 40.6666V39.8333C255.5 38.6527 255.501 37.8174 255.554 37.1645C255.607 36.5212 255.706 36.1285 255.863 35.82C256.183 35.1927 256.693 34.6828 257.32 34.3632Z" stroke="#6A6F85" stroke-width="0.835"/>
<rect x="225" y="74" width="64.9666" height="8" rx="4" fill="#4B7BEB"/>
<rect x="225" y="86" width="33.2863" height="6" rx="3" fill="#E0E3EB"/>
<g clip-path="url(#clip9_1_4138)">
<path d="M230.662 101.173C230.257 100.919 229.743 100.919 229.338 101.173L226.838 102.735C226.472 102.964 226.25 103.364 226.25 103.795V106.205C226.25 106.636 226.472 107.036 226.838 107.265L229.338 108.827C229.743 109.081 230.257 109.081 230.662 108.827L233.162 107.265C233.528 107.036 233.75 106.636 233.75 106.205V103.795C233.75 103.364 233.528 102.964 233.162 102.735L230.662 101.173Z" fill="#E0E3EB" stroke="#E0E3EB" stroke-linecap="round"/>
</g>
<g clip-path="url(#clip10_1_4138)">
<path d="M248.662 101.173C248.257 100.919 247.743 100.919 247.338 101.173L244.838 102.735C244.472 102.964 244.25 103.364 244.25 103.795V106.205C244.25 106.636 244.472 107.036 244.838 107.265L247.338 108.827C247.743 109.081 248.257 109.081 248.662 108.827L251.162 107.265C251.528 107.036 251.75 106.636 251.75 106.205V103.795C251.75 103.364 251.528 102.964 251.162 102.735L248.662 101.173Z" fill="#E0E3EB" stroke="#E0E3EB" stroke-linecap="round"/>
</g>
<g clip-path="url(#clip11_1_4138)">
<path d="M266.662 101.173C266.257 100.919 265.743 100.919 265.338 101.173L262.838 102.735C262.472 102.964 262.25 103.364 262.25 103.795V106.205C262.25 106.636 262.472 107.036 262.838 107.265L265.338 108.827C265.743 109.081 266.257 109.081 266.662 108.827L269.162 107.265C269.528 107.036 269.75 106.636 269.75 106.205V103.795C269.75 103.364 269.528 102.964 269.162 102.735L266.662 101.173Z" fill="#E0E3EB" stroke="#E0E3EB" stroke-linecap="round"/>
</g>
<g filter="url(#filter1_d_1_4138)">
<rect x="103.5" y="67" width="58" height="25" rx="12.5" fill="#454BBA" shape-rendering="crispEdges"/>
<path d="M120.738 74.074H122.726L125.106 78.232L127.5 74.074H129.39L125.89 79.8V84H124.21V79.8L120.738 74.074ZM132.108 82.754C132.36 82.754 132.598 82.7073 132.822 82.614C133.055 82.5207 133.261 82.3853 133.438 82.208C133.615 82.0213 133.755 81.7927 133.858 81.522C133.961 81.2513 134.012 80.9387 134.012 80.584C134.012 80.2293 133.961 79.9213 133.858 79.66C133.755 79.3893 133.615 79.1653 133.438 78.988C133.261 78.8013 133.055 78.666 132.822 78.582C132.598 78.4887 132.36 78.442 132.108 78.442C131.856 78.442 131.613 78.4887 131.38 78.582C131.156 78.666 130.955 78.8013 130.778 78.988C130.61 79.1653 130.47 79.3893 130.358 79.66C130.255 79.9213 130.204 80.2293 130.204 80.584C130.204 80.9387 130.255 81.2513 130.358 81.522C130.47 81.7927 130.61 82.0213 130.778 82.208C130.955 82.3853 131.156 82.5207 131.38 82.614C131.613 82.7073 131.856 82.754 132.108 82.754ZM132.108 76.972C132.621 76.972 133.093 77.0653 133.522 77.252C133.951 77.4293 134.325 77.6813 134.642 78.008C134.959 78.3253 135.207 78.7033 135.384 79.142C135.561 79.5807 135.65 80.0613 135.65 80.584C135.65 81.1067 135.561 81.592 135.384 82.04C135.207 82.4787 134.959 82.8613 134.642 83.188C134.325 83.5053 133.951 83.7573 133.522 83.944C133.093 84.1213 132.621 84.21 132.108 84.21C131.604 84.21 131.133 84.1213 130.694 83.944C130.265 83.7573 129.891 83.5053 129.574 83.188C129.266 82.8613 129.023 82.4787 128.846 82.04C128.669 81.592 128.58 81.1067 128.58 80.584C128.58 80.0613 128.669 79.5807 128.846 79.142C129.023 78.7033 129.266 78.3253 129.574 78.008C129.891 77.6813 130.265 77.4293 130.694 77.252C131.133 77.0653 131.604 76.972 132.108 76.972ZM141.669 83.244C141.501 83.552 141.235 83.79 140.871 83.958C140.516 84.1167 140.138 84.196 139.737 84.196C139.326 84.196 138.962 84.126 138.645 83.986C138.327 83.846 138.057 83.6547 137.833 83.412C137.618 83.16 137.45 82.8707 137.329 82.544C137.217 82.2173 137.161 81.8627 137.161 81.48V77.182H138.785V81.186C138.785 81.4007 138.808 81.6013 138.855 81.788C138.911 81.9747 138.995 82.138 139.107 82.278C139.219 82.418 139.359 82.53 139.527 82.614C139.704 82.698 139.914 82.74 140.157 82.74C140.633 82.74 140.987 82.6 141.221 82.32C141.463 82.0307 141.585 81.662 141.585 81.214V77.182H143.209V82.754C143.209 83.034 143.213 83.2813 143.223 83.496C143.241 83.7013 143.26 83.8693 143.279 84H141.725C141.706 83.9253 141.692 83.818 141.683 83.678C141.673 83.5287 141.669 83.384 141.669 83.244Z" fill="white"/>
</g>
<g filter="url(#filter2_d_1_4138)">
<path d="M86.6779 55.6382C86.3245 53.949 88.1327 52.6352 89.63 53.4933L100.789 59.8884C102.307 60.7585 102.054 63.0208 100.382 63.5353L95.8878 64.9178C95.4394 65.0557 95.0537 65.3469 94.7983 65.7404L92.8973 68.6688C91.9253 70.166 89.6277 69.7366 89.2622 67.9894L86.6779 55.6382Z" fill="#454BBA"/>
<path d="M87.6567 55.4334C87.48 54.5888 88.3841 53.9319 89.1328 54.361L100.291 60.756C101.05 61.1911 100.924 62.3222 100.088 62.5795L95.5938 63.962L95.8878 64.9178L95.5938 63.962C94.9212 64.1689 94.3427 64.6056 93.9595 65.1959L92.0585 68.1243C91.5726 68.8729 90.4237 68.6582 90.241 67.7846L87.6567 55.4334Z" stroke="white" stroke-width="2"/>
</g>
</g>
</g>
<defs>
<filter id="filter0_ii_1_4138" x="0.5" y="-8" width="274.5" height="134" filterUnits="userSpaceOnUse" color-interpolation-filters="sRGB">
<feFlood flood-opacity="0" result="BackgroundImageFix"/>
<feBlend mode="normal" in="SourceGraphic" in2="BackgroundImageFix" result="shape"/>
<feColorMatrix in="SourceAlpha" type="matrix" values="0 0 0 0 0 0 0 0 0 0 0 0 0 0 0 0 0 0 127 0" result="hardAlpha"/>
<feOffset dy="-1"/>
<feGaussianBlur stdDeviation="3.5"/>
<feComposite in2="hardAlpha" operator="arithmetic" k2="-1" k3="1"/>
<feColorMatrix type="matrix" values="0 0 0 0 0.0235294 0 0 0 0 0.0588235 0 0 0 0 0.2 0 0 0 0.02 0"/>
<feBlend mode="normal" in2="shape" result="effect1_innerShadow_1_4138"/>
<feColorMatrix in="SourceAlpha" type="matrix" values="0 0 0 0 0 0 0 0 0 0 0 0 0 0 0 0 0 0 127 0" result="hardAlpha"/>
<feOffset dy="-8"/>
<feGaussianBlur stdDeviation="8"/>
<feComposite in2="hardAlpha" operator="arithmetic" k2="-1" k3="1"/>
<feColorMatrix type="matrix" values="0 0 0 0 0.0235294 0 0 0 0 0.0588235 0 0 0 0 0.2 0 0 0 0.02 0"/>
<feBlend mode="normal" in2="effect1_innerShadow_1_4138" result="effect2_innerShadow_1_4138"/>
</filter>
<filter id="filter1_d_1_4138" x="83.5" y="56" width="98" height="65" filterUnits="userSpaceOnUse" color-interpolation-filters="sRGB">
<feFlood flood-opacity="0" result="BackgroundImageFix"/>
<feColorMatrix in="SourceAlpha" type="matrix" values="0 0 0 0 0 0 0 0 0 0 0 0 0 0 0 0 0 0 127 0" result="hardAlpha"/>
<feOffset dy="9"/>
<feGaussianBlur stdDeviation="10"/>
<feComposite in2="hardAlpha" operator="out"/>
<feColorMatrix type="matrix" values="0 0 0 0 0.270588 0 0 0 0 0.294118 0 0 0 0 0.729412 0 0 0 0.25 0"/>
<feBlend mode="normal" in2="BackgroundImageFix" result="effect1_dropShadow_1_4138"/>
<feBlend mode="normal" in="SourceGraphic" in2="effect1_dropShadow_1_4138" result="shape"/>
</filter>
<filter id="filter2_d_1_4138" x="66.7572" y="43.2852" width="54.9131" height="56.1096" filterUnits="userSpaceOnUse" color-interpolation-filters="sRGB">
<feFlood flood-opacity="0" result="BackgroundImageFix"/>
<feColorMatrix in="SourceAlpha" type="matrix" values="0 0 0 0 0 0 0 0 0 0 0 0 0 0 0 0 0 0 127 0" result="hardAlpha"/>
<feOffset dy="9.93794"/>
<feGaussianBlur stdDeviation="9.93794"/>
<feColorMatrix type="matrix" values="0 0 0 0 0.270588 0 0 0 0 0.294118 0 0 0 0 0.729412 0 0 0 0.28 0"/>
<feBlend mode="normal" in2="BackgroundImageFix" result="effect1_dropShadow_1_4138"/>
<feBlend mode="normal" in="SourceGraphic" in2="effect1_dropShadow_1_4138" result="shape"/>
</filter>
<clipPath id="clip0_1_4138">
<rect x="0.5" width="274.5" height="126" rx="11" fill="white"/>
</clipPath>
<clipPath id="clip1_1_4138">
<rect width="10" height="10" fill="white" transform="translate(21 100)"/>
</clipPath>
<clipPath id="clip2_1_4138">
<rect width="10" height="10" fill="white" transform="translate(39 100)"/>
</clipPath>
<clipPath id="clip3_1_4138">
<rect width="10" height="10" fill="white" transform="translate(57 100)"/>
</clipPath>
<clipPath id="clip4_1_4138">
<rect width="10" height="10" fill="white" transform="translate(75 100)"/>
</clipPath>
<clipPath id="clip5_1_4138">
<rect width="10" height="10" fill="white" transform="translate(123 100)"/>
</clipPath>
<clipPath id="clip6_1_4138">
<rect width="10" height="10" fill="white" transform="translate(141 100)"/>
</clipPath>
<clipPath id="clip7_1_4138">
<rect width="10" height="10" fill="white" transform="translate(159 100)"/>
</clipPath>
<clipPath id="clip8_1_4138">
<rect width="10" height="10" fill="white" transform="translate(177 100)"/>
</clipPath>
<clipPath id="clip9_1_4138">
<rect width="10" height="10" fill="white" transform="translate(225 100)"/>
</clipPath>
<clipPath id="clip10_1_4138">
<rect width="10" height="10" fill="white" transform="translate(243 100)"/>
</clipPath>
<clipPath id="clip11_1_4138">
<rect width="10" height="10" fill="white" transform="translate(261 100)"/>
</clipPath>
</defs>
</svg>
